<mxfile host="app.diagrams.net" modified="2024-07-10T02:07:40.823Z" agent="Mozilla/5.0 (Windows NT 10.0; Win64; x64) AppleWebKit/537.36 (KHTML, like Gecko) Chrome/126.0.0.0 Safari/537.36 Edg/126.0.0.0" etag="kMfxCjPqjSzSyaV8Xwt5" version="24.6.4" type="device">
  <diagram name="PÃ¡gina-1" id="KaVkqW-eVY7A7tpYsLZp">
    <mxGraphModel dx="2215" dy="633" grid="1" gridSize="10" guides="1" tooltips="1" connect="1" arrows="1" fold="1" page="1" pageScale="1" pageWidth="827" pageHeight="1169" math="0" shadow="0">
      <root>
        <mxCell id="0" />
        <mxCell id="1" parent="0" />
        <mxCell id="HWfvGFDv6Gkzwaa1oAlW-18" value="Marca" style="ellipse;whiteSpace=wrap;html=1;align=center;" parent="1" vertex="1">
          <mxGeometry x="970" y="165" width="100" height="40" as="geometry" />
        </mxCell>
        <mxCell id="HWfvGFDv6Gkzwaa1oAlW-100" style="edgeStyle=orthogonalEdgeStyle;rounded=0;orthogonalLoop=1;jettySize=auto;html=1;entryX=0.5;entryY=1;entryDx=0;entryDy=0;" parent="1" source="HWfvGFDv6Gkzwaa1oAlW-19" target="HWfvGFDv6Gkzwaa1oAlW-44" edge="1">
          <mxGeometry relative="1" as="geometry" />
        </mxCell>
        <mxCell id="HWfvGFDv6Gkzwaa1oAlW-101" value="(1,n)" style="edgeLabel;html=1;align=center;verticalAlign=middle;resizable=0;points=[];" parent="HWfvGFDv6Gkzwaa1oAlW-100" vertex="1" connectable="0">
          <mxGeometry x="-0.35" y="3" relative="1" as="geometry">
            <mxPoint as="offset" />
          </mxGeometry>
        </mxCell>
        <mxCell id="xJOHi_WDOZoTclQfqix0-33" style="edgeStyle=orthogonalEdgeStyle;rounded=0;orthogonalLoop=1;jettySize=auto;html=1;entryX=1;entryY=0.5;entryDx=0;entryDy=0;" parent="1" source="HWfvGFDv6Gkzwaa1oAlW-19" target="xJOHi_WDOZoTclQfqix0-32" edge="1">
          <mxGeometry relative="1" as="geometry" />
        </mxCell>
        <mxCell id="xJOHi_WDOZoTclQfqix0-35" value="(1,n)" style="edgeLabel;html=1;align=center;verticalAlign=middle;resizable=0;points=[];" parent="xJOHi_WDOZoTclQfqix0-33" vertex="1" connectable="0">
          <mxGeometry x="-0.28" y="1" relative="1" as="geometry">
            <mxPoint x="-2" y="-13" as="offset" />
          </mxGeometry>
        </mxCell>
        <mxCell id="HWfvGFDv6Gkzwaa1oAlW-19" value="Proceso" style="whiteSpace=wrap;html=1;align=center;" parent="1" vertex="1">
          <mxGeometry x="550" y="542.14" width="100" height="40" as="geometry" />
        </mxCell>
        <mxCell id="HWfvGFDv6Gkzwaa1oAlW-49" value="" style="edgeStyle=orthogonalEdgeStyle;rounded=0;orthogonalLoop=1;jettySize=auto;html=1;" parent="1" source="HWfvGFDv6Gkzwaa1oAlW-21" target="HWfvGFDv6Gkzwaa1oAlW-44" edge="1">
          <mxGeometry relative="1" as="geometry" />
        </mxCell>
        <mxCell id="HWfvGFDv6Gkzwaa1oAlW-67" value="(1,n)" style="edgeLabel;html=1;align=center;verticalAlign=middle;resizable=0;points=[];" parent="HWfvGFDv6Gkzwaa1oAlW-49" vertex="1" connectable="0">
          <mxGeometry x="-0.325" y="2" relative="1" as="geometry">
            <mxPoint x="-2" as="offset" />
          </mxGeometry>
        </mxCell>
        <mxCell id="HWfvGFDv6Gkzwaa1oAlW-69" style="edgeStyle=orthogonalEdgeStyle;rounded=0;orthogonalLoop=1;jettySize=auto;html=1;entryX=0;entryY=0.5;entryDx=0;entryDy=0;" parent="1" source="HWfvGFDv6Gkzwaa1oAlW-21" target="HWfvGFDv6Gkzwaa1oAlW-64" edge="1">
          <mxGeometry relative="1" as="geometry" />
        </mxCell>
        <mxCell id="HWfvGFDv6Gkzwaa1oAlW-71" value="(1,n)" style="edgeLabel;html=1;align=center;verticalAlign=middle;resizable=0;points=[];" parent="HWfvGFDv6Gkzwaa1oAlW-69" vertex="1" connectable="0">
          <mxGeometry x="-0.12" y="1" relative="1" as="geometry">
            <mxPoint x="-2" y="-9" as="offset" />
          </mxGeometry>
        </mxCell>
        <mxCell id="HWfvGFDv6Gkzwaa1oAlW-83" style="edgeStyle=orthogonalEdgeStyle;rounded=0;orthogonalLoop=1;jettySize=auto;html=1;entryX=1;entryY=0.5;entryDx=0;entryDy=0;" parent="1" source="HWfvGFDv6Gkzwaa1oAlW-21" target="HWfvGFDv6Gkzwaa1oAlW-82" edge="1">
          <mxGeometry relative="1" as="geometry" />
        </mxCell>
        <mxCell id="HWfvGFDv6Gkzwaa1oAlW-92" value="(1,n)" style="edgeLabel;html=1;align=center;verticalAlign=middle;resizable=0;points=[];" parent="HWfvGFDv6Gkzwaa1oAlW-83" vertex="1" connectable="0">
          <mxGeometry x="-0.15" relative="1" as="geometry">
            <mxPoint x="-3" y="-10" as="offset" />
          </mxGeometry>
        </mxCell>
        <mxCell id="HWfvGFDv6Gkzwaa1oAlW-21" value="Planta" style="whiteSpace=wrap;html=1;align=center;" parent="1" vertex="1">
          <mxGeometry x="570" y="255" width="60" height="40" as="geometry" />
        </mxCell>
        <mxCell id="HWfvGFDv6Gkzwaa1oAlW-28" value="Superficie" style="ellipse;whiteSpace=wrap;html=1;align=center;" parent="1" vertex="1">
          <mxGeometry x="660" y="185" width="70" height="40" as="geometry" />
        </mxCell>
        <mxCell id="HWfvGFDv6Gkzwaa1oAlW-29" value="" style="endArrow=none;html=1;rounded=0;entryX=0;entryY=1;entryDx=0;entryDy=0;exitX=1;exitY=0;exitDx=0;exitDy=0;" parent="1" source="HWfvGFDv6Gkzwaa1oAlW-21" target="HWfvGFDv6Gkzwaa1oAlW-28" edge="1">
          <mxGeometry relative="1" as="geometry">
            <mxPoint x="630" y="255" as="sourcePoint" />
            <mxPoint x="615" y="295" as="targetPoint" />
          </mxGeometry>
        </mxCell>
        <mxCell id="HWfvGFDv6Gkzwaa1oAlW-44" value="consta de" style="shape=rhombus;perimeter=rhombusPerimeter;whiteSpace=wrap;html=1;align=center;" parent="1" vertex="1">
          <mxGeometry x="555" y="422.14" width="90" height="50" as="geometry" />
        </mxCell>
        <mxCell id="HWfvGFDv6Gkzwaa1oAlW-50" value="planta_idplanta" style="ellipse;whiteSpace=wrap;html=1;align=center;" parent="1" vertex="1">
          <mxGeometry x="680" y="427.14" width="100" height="40" as="geometry" />
        </mxCell>
        <mxCell id="HWfvGFDv6Gkzwaa1oAlW-51" value="proceso_idproceso" style="ellipse;whiteSpace=wrap;html=1;align=center;" parent="1" vertex="1">
          <mxGeometry x="400" y="427.14" width="110" height="40" as="geometry" />
        </mxCell>
        <mxCell id="HWfvGFDv6Gkzwaa1oAlW-52" value="" style="endArrow=none;html=1;rounded=0;entryX=0;entryY=0.5;entryDx=0;entryDy=0;exitX=1;exitY=0.5;exitDx=0;exitDy=0;" parent="1" source="HWfvGFDv6Gkzwaa1oAlW-44" target="HWfvGFDv6Gkzwaa1oAlW-50" edge="1">
          <mxGeometry relative="1" as="geometry">
            <mxPoint x="510" y="472.14" as="sourcePoint" />
            <mxPoint x="670" y="472.14" as="targetPoint" />
          </mxGeometry>
        </mxCell>
        <mxCell id="HWfvGFDv6Gkzwaa1oAlW-53" value="" style="endArrow=none;html=1;rounded=0;entryX=0;entryY=0.5;entryDx=0;entryDy=0;exitX=1;exitY=0.5;exitDx=0;exitDy=0;" parent="1" source="HWfvGFDv6Gkzwaa1oAlW-51" target="HWfvGFDv6Gkzwaa1oAlW-44" edge="1">
          <mxGeometry relative="1" as="geometry">
            <mxPoint x="510" y="472.14" as="sourcePoint" />
            <mxPoint x="670" y="472.14" as="targetPoint" />
          </mxGeometry>
        </mxCell>
        <mxCell id="HWfvGFDv6Gkzwaa1oAlW-54" value="nombre" style="ellipse;whiteSpace=wrap;html=1;align=center;" parent="1" vertex="1">
          <mxGeometry x="690" y="542.14" width="70" height="40" as="geometry" />
        </mxCell>
        <mxCell id="HWfvGFDv6Gkzwaa1oAlW-57" value="" style="endArrow=none;html=1;rounded=0;entryX=0;entryY=0.5;entryDx=0;entryDy=0;exitX=1;exitY=0.5;exitDx=0;exitDy=0;" parent="1" source="HWfvGFDv6Gkzwaa1oAlW-19" target="HWfvGFDv6Gkzwaa1oAlW-54" edge="1">
          <mxGeometry relative="1" as="geometry">
            <mxPoint x="540" y="472.14" as="sourcePoint" />
            <mxPoint x="700" y="472.14" as="targetPoint" />
          </mxGeometry>
        </mxCell>
        <mxCell id="HWfvGFDv6Gkzwaa1oAlW-102" style="edgeStyle=orthogonalEdgeStyle;rounded=0;orthogonalLoop=1;jettySize=auto;html=1;entryX=1;entryY=0.5;entryDx=0;entryDy=0;strokeColor=default;align=center;verticalAlign=middle;fontFamily=Helvetica;fontSize=11;fontColor=default;labelBackgroundColor=default;endArrow=classic;" parent="1" source="HWfvGFDv6Gkzwaa1oAlW-59" target="HWfvGFDv6Gkzwaa1oAlW-64" edge="1">
          <mxGeometry relative="1" as="geometry" />
        </mxCell>
        <mxCell id="HWfvGFDv6Gkzwaa1oAlW-103" value="(1,n)" style="edgeLabel;html=1;align=center;verticalAlign=middle;resizable=0;points=[];fontFamily=Helvetica;fontSize=11;fontColor=default;labelBackgroundColor=default;" parent="HWfvGFDv6Gkzwaa1oAlW-102" vertex="1" connectable="0">
          <mxGeometry x="-0.04" y="4" relative="1" as="geometry">
            <mxPoint y="-11" as="offset" />
          </mxGeometry>
        </mxCell>
        <mxCell id="xJOHi_WDOZoTclQfqix0-9" value="" style="edgeStyle=orthogonalEdgeStyle;rounded=0;orthogonalLoop=1;jettySize=auto;html=1;" parent="1" source="HWfvGFDv6Gkzwaa1oAlW-59" target="xJOHi_WDOZoTclQfqix0-8" edge="1">
          <mxGeometry relative="1" as="geometry" />
        </mxCell>
        <mxCell id="xJOHi_WDOZoTclQfqix0-12" value="(1,1)" style="edgeLabel;html=1;align=center;verticalAlign=middle;resizable=0;points=[];" parent="xJOHi_WDOZoTclQfqix0-9" vertex="1" connectable="0">
          <mxGeometry x="-0.3251" y="1" relative="1" as="geometry">
            <mxPoint as="offset" />
          </mxGeometry>
        </mxCell>
        <mxCell id="xJOHi_WDOZoTclQfqix0-19" style="edgeStyle=orthogonalEdgeStyle;rounded=0;orthogonalLoop=1;jettySize=auto;html=1;entryX=0;entryY=0.5;entryDx=0;entryDy=0;" parent="1" source="HWfvGFDv6Gkzwaa1oAlW-59" target="xJOHi_WDOZoTclQfqix0-18" edge="1">
          <mxGeometry relative="1" as="geometry" />
        </mxCell>
        <mxCell id="xJOHi_WDOZoTclQfqix0-39" value="(1,1)" style="edgeLabel;html=1;align=center;verticalAlign=middle;resizable=0;points=[];" parent="xJOHi_WDOZoTclQfqix0-19" vertex="1" connectable="0">
          <mxGeometry x="-0.2531" y="-4" relative="1" as="geometry">
            <mxPoint y="-4" as="offset" />
          </mxGeometry>
        </mxCell>
        <mxCell id="HWfvGFDv6Gkzwaa1oAlW-59" value="Maquina" style="whiteSpace=wrap;html=1;align=center;" parent="1" vertex="1">
          <mxGeometry x="910" y="252.5" width="100" height="40" as="geometry" />
        </mxCell>
        <mxCell id="HWfvGFDv6Gkzwaa1oAlW-64" value="Se encuentran" style="shape=rhombus;perimeter=rhombusPerimeter;whiteSpace=wrap;html=1;align=center;" parent="1" vertex="1">
          <mxGeometry x="710" y="245" width="100" height="55" as="geometry" />
        </mxCell>
        <mxCell id="HWfvGFDv6Gkzwaa1oAlW-65" value="id_numero" style="ellipse;whiteSpace=wrap;html=1;align=center;fontStyle=4;" parent="1" vertex="1">
          <mxGeometry x="860" y="150" width="100" height="40" as="geometry" />
        </mxCell>
        <mxCell id="HWfvGFDv6Gkzwaa1oAlW-73" value="" style="endArrow=none;html=1;rounded=0;entryX=0.5;entryY=1;entryDx=0;entryDy=0;" parent="1" target="HWfvGFDv6Gkzwaa1oAlW-65" edge="1">
          <mxGeometry relative="1" as="geometry">
            <mxPoint x="930" y="250" as="sourcePoint" />
            <mxPoint x="1000" y="325" as="targetPoint" />
          </mxGeometry>
        </mxCell>
        <mxCell id="HWfvGFDv6Gkzwaa1oAlW-74" value="Modelo" style="ellipse;whiteSpace=wrap;html=1;align=center;" parent="1" vertex="1">
          <mxGeometry x="1040" y="205" width="100" height="40" as="geometry" />
        </mxCell>
        <mxCell id="HWfvGFDv6Gkzwaa1oAlW-75" value="" style="endArrow=none;html=1;rounded=0;" parent="1" target="HWfvGFDv6Gkzwaa1oAlW-18" edge="1">
          <mxGeometry relative="1" as="geometry">
            <mxPoint x="980" y="250" as="sourcePoint" />
            <mxPoint x="1030" y="345" as="targetPoint" />
          </mxGeometry>
        </mxCell>
        <mxCell id="HWfvGFDv6Gkzwaa1oAlW-76" value="" style="endArrow=none;html=1;rounded=0;entryX=0;entryY=0.5;entryDx=0;entryDy=0;exitX=1;exitY=0;exitDx=0;exitDy=0;" parent="1" source="HWfvGFDv6Gkzwaa1oAlW-59" target="HWfvGFDv6Gkzwaa1oAlW-74" edge="1">
          <mxGeometry relative="1" as="geometry">
            <mxPoint x="870" y="345" as="sourcePoint" />
            <mxPoint x="1030" y="345" as="targetPoint" />
          </mxGeometry>
        </mxCell>
        <mxCell id="HWfvGFDv6Gkzwaa1oAlW-77" value="Tecnico" style="whiteSpace=wrap;html=1;align=center;" parent="1" vertex="1">
          <mxGeometry x="910" y="502.14" width="100" height="40" as="geometry" />
        </mxCell>
        <mxCell id="HWfvGFDv6Gkzwaa1oAlW-80" value="id_planta" style="ellipse;whiteSpace=wrap;html=1;align=center;" parent="1" vertex="1">
          <mxGeometry x="580" y="182.5" width="70" height="35" as="geometry" />
        </mxCell>
        <mxCell id="HWfvGFDv6Gkzwaa1oAlW-81" value="Color" style="whiteSpace=wrap;html=1;align=center;" parent="1" vertex="1">
          <mxGeometry x="270" y="255" width="100" height="40" as="geometry" />
        </mxCell>
        <mxCell id="HWfvGFDv6Gkzwaa1oAlW-84" style="edgeStyle=orthogonalEdgeStyle;rounded=0;orthogonalLoop=1;jettySize=auto;html=1;entryX=1;entryY=0.5;entryDx=0;entryDy=0;" parent="1" source="HWfvGFDv6Gkzwaa1oAlW-82" target="HWfvGFDv6Gkzwaa1oAlW-81" edge="1">
          <mxGeometry relative="1" as="geometry" />
        </mxCell>
        <mxCell id="HWfvGFDv6Gkzwaa1oAlW-93" value="(1,1)" style="edgeLabel;html=1;align=center;verticalAlign=middle;resizable=0;points=[];" parent="HWfvGFDv6Gkzwaa1oAlW-84" vertex="1" connectable="0">
          <mxGeometry x="-0.25" y="2" relative="1" as="geometry">
            <mxPoint y="-12" as="offset" />
          </mxGeometry>
        </mxCell>
        <mxCell id="HWfvGFDv6Gkzwaa1oAlW-82" value="identificada por" style="shape=rhombus;perimeter=rhombusPerimeter;whiteSpace=wrap;html=1;align=center;" parent="1" vertex="1">
          <mxGeometry x="410" y="245" width="120" height="60" as="geometry" />
        </mxCell>
        <mxCell id="HWfvGFDv6Gkzwaa1oAlW-85" value="id_color" style="ellipse;whiteSpace=wrap;html=1;align=center;" parent="1" vertex="1">
          <mxGeometry x="290" y="320" width="60" height="30" as="geometry" />
        </mxCell>
        <mxCell id="HWfvGFDv6Gkzwaa1oAlW-86" value="color" style="ellipse;whiteSpace=wrap;html=1;align=center;" parent="1" vertex="1">
          <mxGeometry x="210" y="300" width="50" height="30" as="geometry" />
        </mxCell>
        <mxCell id="HWfvGFDv6Gkzwaa1oAlW-88" value="" style="endArrow=none;html=1;rounded=0;entryX=0;entryY=1;entryDx=0;entryDy=0;exitX=1;exitY=0;exitDx=0;exitDy=0;" parent="1" source="HWfvGFDv6Gkzwaa1oAlW-86" target="HWfvGFDv6Gkzwaa1oAlW-81" edge="1">
          <mxGeometry relative="1" as="geometry">
            <mxPoint x="240" y="375" as="sourcePoint" />
            <mxPoint x="400" y="375" as="targetPoint" />
          </mxGeometry>
        </mxCell>
        <mxCell id="HWfvGFDv6Gkzwaa1oAlW-89" value="" style="endArrow=none;html=1;rounded=0;" parent="1" source="HWfvGFDv6Gkzwaa1oAlW-85" edge="1">
          <mxGeometry relative="1" as="geometry">
            <mxPoint x="240" y="375" as="sourcePoint" />
            <mxPoint x="320" y="295" as="targetPoint" />
          </mxGeometry>
        </mxCell>
        <mxCell id="HWfvGFDv6Gkzwaa1oAlW-91" value="" style="endArrow=none;html=1;rounded=0;entryX=0.5;entryY=1;entryDx=0;entryDy=0;exitX=0.75;exitY=0;exitDx=0;exitDy=0;" parent="1" source="HWfvGFDv6Gkzwaa1oAlW-21" target="HWfvGFDv6Gkzwaa1oAlW-80" edge="1">
          <mxGeometry relative="1" as="geometry">
            <mxPoint x="620" y="365" as="sourcePoint" />
            <mxPoint x="780" y="365" as="targetPoint" />
          </mxGeometry>
        </mxCell>
        <mxCell id="HWfvGFDv6Gkzwaa1oAlW-96" value="id_proceso" style="ellipse;whiteSpace=wrap;html=1;align=center;" parent="1" vertex="1">
          <mxGeometry x="550" y="612.14" width="100" height="40" as="geometry" />
        </mxCell>
        <mxCell id="HWfvGFDv6Gkzwaa1oAlW-97" value="" style="endArrow=none;html=1;rounded=0;entryX=0.5;entryY=0;entryDx=0;entryDy=0;exitX=0.5;exitY=1;exitDx=0;exitDy=0;" parent="1" source="HWfvGFDv6Gkzwaa1oAlW-19" target="HWfvGFDv6Gkzwaa1oAlW-96" edge="1">
          <mxGeometry relative="1" as="geometry">
            <mxPoint x="510" y="542.14" as="sourcePoint" />
            <mxPoint x="670" y="542.14" as="targetPoint" />
          </mxGeometry>
        </mxCell>
        <mxCell id="HWfvGFDv6Gkzwaa1oAlW-98" value="color_idcolor" style="ellipse;whiteSpace=wrap;html=1;align=center;" parent="1" vertex="1">
          <mxGeometry x="480" y="180" width="90" height="40" as="geometry" />
        </mxCell>
        <mxCell id="HWfvGFDv6Gkzwaa1oAlW-99" value="" style="endArrow=none;html=1;rounded=0;entryX=1;entryY=1;entryDx=0;entryDy=0;exitX=0.25;exitY=0;exitDx=0;exitDy=0;" parent="1" source="HWfvGFDv6Gkzwaa1oAlW-21" target="HWfvGFDv6Gkzwaa1oAlW-98" edge="1">
          <mxGeometry relative="1" as="geometry">
            <mxPoint x="470" y="345" as="sourcePoint" />
            <mxPoint x="630" y="345" as="targetPoint" />
          </mxGeometry>
        </mxCell>
        <mxCell id="HWfvGFDv6Gkzwaa1oAlW-104" value="planta_idplanta" style="ellipse;whiteSpace=wrap;html=1;align=center;fontFamily=Helvetica;fontSize=11;fontColor=default;labelBackgroundColor=default;" parent="1" vertex="1">
          <mxGeometry x="710" y="330" width="100" height="40" as="geometry" />
        </mxCell>
        <mxCell id="HWfvGFDv6Gkzwaa1oAlW-105" value="maquina_idnumero" style="ellipse;whiteSpace=wrap;html=1;align=center;fontFamily=Helvetica;fontSize=11;fontColor=default;labelBackgroundColor=default;" parent="1" vertex="1">
          <mxGeometry x="710" y="120" width="100" height="40" as="geometry" />
        </mxCell>
        <mxCell id="HWfvGFDv6Gkzwaa1oAlW-107" value="" style="endArrow=none;html=1;rounded=0;strokeColor=default;align=center;verticalAlign=middle;fontFamily=Helvetica;fontSize=11;fontColor=default;labelBackgroundColor=default;edgeStyle=orthogonalEdgeStyle;entryX=0.5;entryY=0;entryDx=0;entryDy=0;exitX=0.5;exitY=1;exitDx=0;exitDy=0;" parent="1" source="HWfvGFDv6Gkzwaa1oAlW-64" target="HWfvGFDv6Gkzwaa1oAlW-104" edge="1">
          <mxGeometry relative="1" as="geometry">
            <mxPoint x="610" y="310" as="sourcePoint" />
            <mxPoint x="770" y="310" as="targetPoint" />
          </mxGeometry>
        </mxCell>
        <mxCell id="HWfvGFDv6Gkzwaa1oAlW-108" value="" style="endArrow=none;html=1;rounded=0;strokeColor=default;align=center;verticalAlign=middle;fontFamily=Helvetica;fontSize=11;fontColor=default;labelBackgroundColor=default;edgeStyle=orthogonalEdgeStyle;entryX=0.5;entryY=1;entryDx=0;entryDy=0;exitX=0.5;exitY=0;exitDx=0;exitDy=0;" parent="1" source="HWfvGFDv6Gkzwaa1oAlW-64" target="HWfvGFDv6Gkzwaa1oAlW-105" edge="1">
          <mxGeometry relative="1" as="geometry">
            <mxPoint x="760" y="220" as="sourcePoint" />
            <mxPoint x="770" y="310" as="targetPoint" />
          </mxGeometry>
        </mxCell>
        <mxCell id="HWfvGFDv6Gkzwaa1oAlW-110" value="id_tecnico" style="ellipse;whiteSpace=wrap;html=1;align=center;fontFamily=Helvetica;fontSize=11;fontColor=default;labelBackgroundColor=default;" parent="1" vertex="1">
          <mxGeometry x="1065" y="472.14" width="70" height="30" as="geometry" />
        </mxCell>
        <mxCell id="HWfvGFDv6Gkzwaa1oAlW-111" value="nombre" style="ellipse;whiteSpace=wrap;html=1;align=center;fontFamily=Helvetica;fontSize=11;fontColor=default;labelBackgroundColor=default;" parent="1" vertex="1">
          <mxGeometry x="1070" y="542.14" width="60" height="32.14" as="geometry" />
        </mxCell>
        <mxCell id="HWfvGFDv6Gkzwaa1oAlW-112" value="DNI" style="ellipse;whiteSpace=wrap;html=1;align=center;fontFamily=Helvetica;fontSize=11;fontColor=default;labelBackgroundColor=default;" parent="1" vertex="1">
          <mxGeometry x="1075" y="512.14" width="50" height="20" as="geometry" />
        </mxCell>
        <mxCell id="HWfvGFDv6Gkzwaa1oAlW-113" value="apellido" style="ellipse;whiteSpace=wrap;html=1;align=center;fontFamily=Helvetica;fontSize=11;fontColor=default;labelBackgroundColor=default;" parent="1" vertex="1">
          <mxGeometry x="1050" y="582.14" width="60" height="32.14" as="geometry" />
        </mxCell>
        <mxCell id="HWfvGFDv6Gkzwaa1oAlW-114" value="fecha_nacimiento" style="ellipse;whiteSpace=wrap;html=1;align=center;fontFamily=Helvetica;fontSize=11;fontColor=default;labelBackgroundColor=default;" parent="1" vertex="1">
          <mxGeometry x="980" y="622.14" width="100" height="30" as="geometry" />
        </mxCell>
        <mxCell id="HWfvGFDv6Gkzwaa1oAlW-115" value="num_telefonicos" style="ellipse;whiteSpace=wrap;html=1;align=center;fontFamily=Helvetica;fontSize=11;fontColor=default;labelBackgroundColor=default;" parent="1" vertex="1">
          <mxGeometry x="870" y="622.14" width="100" height="32.14" as="geometry" />
        </mxCell>
        <mxCell id="HWfvGFDv6Gkzwaa1oAlW-116" value="" style="endArrow=none;html=1;rounded=0;strokeColor=default;align=center;verticalAlign=middle;fontFamily=Helvetica;fontSize=11;fontColor=default;labelBackgroundColor=default;edgeStyle=orthogonalEdgeStyle;exitX=0.5;exitY=0;exitDx=0;exitDy=0;" parent="1" source="HWfvGFDv6Gkzwaa1oAlW-115" target="HWfvGFDv6Gkzwaa1oAlW-77" edge="1">
          <mxGeometry relative="1" as="geometry">
            <mxPoint x="860" y="632.14" as="sourcePoint" />
            <mxPoint x="1020" y="632.14" as="targetPoint" />
            <Array as="points">
              <mxPoint x="923" y="622.14" />
            </Array>
          </mxGeometry>
        </mxCell>
        <mxCell id="xJOHi_WDOZoTclQfqix0-1" value="" style="endArrow=none;html=1;rounded=0;entryX=1;entryY=1;entryDx=0;entryDy=0;exitX=0;exitY=0.5;exitDx=0;exitDy=0;" parent="1" source="HWfvGFDv6Gkzwaa1oAlW-113" target="HWfvGFDv6Gkzwaa1oAlW-77" edge="1">
          <mxGeometry relative="1" as="geometry">
            <mxPoint x="820" y="582.14" as="sourcePoint" />
            <mxPoint x="980" y="582.14" as="targetPoint" />
          </mxGeometry>
        </mxCell>
        <mxCell id="xJOHi_WDOZoTclQfqix0-2" value="" style="endArrow=none;html=1;rounded=0;entryX=0;entryY=0.311;entryDx=0;entryDy=0;entryPerimeter=0;exitX=1;exitY=0.75;exitDx=0;exitDy=0;" parent="1" source="HWfvGFDv6Gkzwaa1oAlW-77" target="HWfvGFDv6Gkzwaa1oAlW-111" edge="1">
          <mxGeometry relative="1" as="geometry">
            <mxPoint x="820" y="582.14" as="sourcePoint" />
            <mxPoint x="980" y="582.14" as="targetPoint" />
          </mxGeometry>
        </mxCell>
        <mxCell id="xJOHi_WDOZoTclQfqix0-3" value="" style="endArrow=none;html=1;rounded=0;entryX=0;entryY=0.5;entryDx=0;entryDy=0;exitX=1;exitY=0.5;exitDx=0;exitDy=0;" parent="1" source="HWfvGFDv6Gkzwaa1oAlW-77" target="HWfvGFDv6Gkzwaa1oAlW-112" edge="1">
          <mxGeometry relative="1" as="geometry">
            <mxPoint x="820" y="582.14" as="sourcePoint" />
            <mxPoint x="980" y="582.14" as="targetPoint" />
          </mxGeometry>
        </mxCell>
        <mxCell id="xJOHi_WDOZoTclQfqix0-4" value="" style="endArrow=none;html=1;rounded=0;entryX=0;entryY=0.5;entryDx=0;entryDy=0;exitX=1;exitY=0;exitDx=0;exitDy=0;" parent="1" source="HWfvGFDv6Gkzwaa1oAlW-77" target="HWfvGFDv6Gkzwaa1oAlW-110" edge="1">
          <mxGeometry relative="1" as="geometry">
            <mxPoint x="820" y="582.14" as="sourcePoint" />
            <mxPoint x="980" y="582.14" as="targetPoint" />
          </mxGeometry>
        </mxCell>
        <mxCell id="xJOHi_WDOZoTclQfqix0-5" value="" style="endArrow=none;html=1;rounded=0;entryX=0.65;entryY=1.05;entryDx=0;entryDy=0;entryPerimeter=0;exitX=0;exitY=0;exitDx=0;exitDy=0;" parent="1" source="HWfvGFDv6Gkzwaa1oAlW-114" target="HWfvGFDv6Gkzwaa1oAlW-77" edge="1">
          <mxGeometry relative="1" as="geometry">
            <mxPoint x="720" y="652.14" as="sourcePoint" />
            <mxPoint x="880" y="652.14" as="targetPoint" />
          </mxGeometry>
        </mxCell>
        <mxCell id="xJOHi_WDOZoTclQfqix0-6" value="id_reemplazo" style="ellipse;whiteSpace=wrap;html=1;align=center;" parent="1" vertex="1">
          <mxGeometry x="780" y="200" width="120" height="40" as="geometry" />
        </mxCell>
        <mxCell id="xJOHi_WDOZoTclQfqix0-10" value="" style="edgeStyle=orthogonalEdgeStyle;rounded=0;orthogonalLoop=1;jettySize=auto;html=1;" parent="1" source="xJOHi_WDOZoTclQfqix0-8" target="HWfvGFDv6Gkzwaa1oAlW-77" edge="1">
          <mxGeometry relative="1" as="geometry" />
        </mxCell>
        <mxCell id="xJOHi_WDOZoTclQfqix0-11" value="(1,n)" style="edgeLabel;html=1;align=center;verticalAlign=middle;resizable=0;points=[];" parent="xJOHi_WDOZoTclQfqix0-10" vertex="1" connectable="0">
          <mxGeometry x="-0.0535" y="2" relative="1" as="geometry">
            <mxPoint as="offset" />
          </mxGeometry>
        </mxCell>
        <mxCell id="xJOHi_WDOZoTclQfqix0-8" value="es operada por" style="shape=rhombus;perimeter=rhombusPerimeter;whiteSpace=wrap;html=1;align=center;" parent="1" vertex="1">
          <mxGeometry x="900" y="362.14" width="120" height="60" as="geometry" />
        </mxCell>
        <mxCell id="xJOHi_WDOZoTclQfqix0-13" value="maquina_idnumero" style="ellipse;whiteSpace=wrap;html=1;align=center;" parent="1" vertex="1">
          <mxGeometry x="1040" y="422.14" width="120" height="40" as="geometry" />
        </mxCell>
        <mxCell id="xJOHi_WDOZoTclQfqix0-14" value="" style="endArrow=none;html=1;rounded=0;entryX=0;entryY=1;entryDx=0;entryDy=0;exitX=0.75;exitY=0;exitDx=0;exitDy=0;" parent="1" source="HWfvGFDv6Gkzwaa1oAlW-77" target="xJOHi_WDOZoTclQfqix0-13" edge="1">
          <mxGeometry relative="1" as="geometry">
            <mxPoint x="900" y="440" as="sourcePoint" />
            <mxPoint x="1060" y="440" as="targetPoint" />
          </mxGeometry>
        </mxCell>
        <mxCell id="xJOHi_WDOZoTclQfqix0-15" value="fecha_inicio" style="ellipse;whiteSpace=wrap;html=1;align=center;" parent="1" vertex="1">
          <mxGeometry x="1050" y="372.14" width="100" height="40" as="geometry" />
        </mxCell>
        <mxCell id="xJOHi_WDOZoTclQfqix0-18" value="&lt;div&gt;&lt;br&gt;&lt;/div&gt;es reemplazada&lt;div&gt;por&lt;/div&gt;" style="shape=rhombus;perimeter=rhombusPerimeter;whiteSpace=wrap;html=1;align=center;" parent="1" vertex="1">
          <mxGeometry x="1170" y="240" width="120" height="65" as="geometry" />
        </mxCell>
        <mxCell id="xJOHi_WDOZoTclQfqix0-21" style="edgeStyle=orthogonalEdgeStyle;rounded=0;orthogonalLoop=1;jettySize=auto;html=1;exitX=0.5;exitY=1;exitDx=0;exitDy=0;entryX=0.88;entryY=1.013;entryDx=0;entryDy=0;entryPerimeter=0;" parent="1" source="xJOHi_WDOZoTclQfqix0-18" target="HWfvGFDv6Gkzwaa1oAlW-59" edge="1">
          <mxGeometry relative="1" as="geometry" />
        </mxCell>
        <mxCell id="xJOHi_WDOZoTclQfqix0-40" value="(1,1)" style="edgeLabel;html=1;align=center;verticalAlign=middle;resizable=0;points=[];" parent="xJOHi_WDOZoTclQfqix0-21" vertex="1" connectable="0">
          <mxGeometry x="-0.2235" y="5" relative="1" as="geometry">
            <mxPoint as="offset" />
          </mxGeometry>
        </mxCell>
        <mxCell id="xJOHi_WDOZoTclQfqix0-23" value="fecha_fin" style="ellipse;whiteSpace=wrap;html=1;align=center;" parent="1" vertex="1">
          <mxGeometry x="770" y="372.14" width="100" height="40" as="geometry" />
        </mxCell>
        <mxCell id="xJOHi_WDOZoTclQfqix0-24" value="" style="endArrow=none;html=1;rounded=0;entryX=0;entryY=0.5;entryDx=0;entryDy=0;exitX=1;exitY=0.5;exitDx=0;exitDy=0;" parent="1" source="xJOHi_WDOZoTclQfqix0-23" target="xJOHi_WDOZoTclQfqix0-8" edge="1">
          <mxGeometry relative="1" as="geometry">
            <mxPoint x="840" y="490" as="sourcePoint" />
            <mxPoint x="1000" y="490" as="targetPoint" />
          </mxGeometry>
        </mxCell>
        <mxCell id="xJOHi_WDOZoTclQfqix0-25" value="" style="endArrow=none;html=1;rounded=0;entryX=0;entryY=0.5;entryDx=0;entryDy=0;exitX=1;exitY=0.5;exitDx=0;exitDy=0;" parent="1" source="xJOHi_WDOZoTclQfqix0-8" target="xJOHi_WDOZoTclQfqix0-15" edge="1">
          <mxGeometry relative="1" as="geometry">
            <mxPoint x="840" y="490" as="sourcePoint" />
            <mxPoint x="1000" y="490" as="targetPoint" />
          </mxGeometry>
        </mxCell>
        <mxCell id="xJOHi_WDOZoTclQfqix0-27" value="Complejidad" style="whiteSpace=wrap;html=1;align=center;" parent="1" vertex="1">
          <mxGeometry x="220" y="542.14" width="100" height="40" as="geometry" />
        </mxCell>
        <mxCell id="xJOHi_WDOZoTclQfqix0-28" value="grado" style="ellipse;whiteSpace=wrap;html=1;align=center;" parent="1" vertex="1">
          <mxGeometry x="190" y="617.14" width="50" height="30" as="geometry" />
        </mxCell>
        <mxCell id="xJOHi_WDOZoTclQfqix0-29" value="id_complejidad" style="ellipse;whiteSpace=wrap;html=1;align=center;" parent="1" vertex="1">
          <mxGeometry x="270" y="612.14" width="100" height="40" as="geometry" />
        </mxCell>
        <mxCell id="xJOHi_WDOZoTclQfqix0-30" value="" style="endArrow=none;html=1;rounded=0;entryX=0.25;entryY=1;entryDx=0;entryDy=0;exitX=0.5;exitY=0;exitDx=0;exitDy=0;" parent="1" source="xJOHi_WDOZoTclQfqix0-28" target="xJOHi_WDOZoTclQfqix0-27" edge="1">
          <mxGeometry relative="1" as="geometry">
            <mxPoint x="270" y="610" as="sourcePoint" />
            <mxPoint x="430" y="610" as="targetPoint" />
          </mxGeometry>
        </mxCell>
        <mxCell id="xJOHi_WDOZoTclQfqix0-31" value="" style="endArrow=none;html=1;rounded=0;exitX=0.75;exitY=1;exitDx=0;exitDy=0;entryX=0.5;entryY=0;entryDx=0;entryDy=0;" parent="1" source="xJOHi_WDOZoTclQfqix0-27" target="xJOHi_WDOZoTclQfqix0-29" edge="1">
          <mxGeometry relative="1" as="geometry">
            <mxPoint x="270" y="610" as="sourcePoint" />
            <mxPoint x="430" y="610" as="targetPoint" />
          </mxGeometry>
        </mxCell>
        <mxCell id="xJOHi_WDOZoTclQfqix0-34" style="edgeStyle=orthogonalEdgeStyle;rounded=0;orthogonalLoop=1;jettySize=auto;html=1;entryX=1;entryY=0.5;entryDx=0;entryDy=0;" parent="1" source="xJOHi_WDOZoTclQfqix0-32" target="xJOHi_WDOZoTclQfqix0-27" edge="1">
          <mxGeometry relative="1" as="geometry" />
        </mxCell>
        <mxCell id="xJOHi_WDOZoTclQfqix0-36" value="(1,1)" style="edgeLabel;html=1;align=center;verticalAlign=middle;resizable=0;points=[];" parent="xJOHi_WDOZoTclQfqix0-34" vertex="1" connectable="0">
          <mxGeometry x="-0.0061" y="1" relative="1" as="geometry">
            <mxPoint y="-13" as="offset" />
          </mxGeometry>
        </mxCell>
        <mxCell id="xJOHi_WDOZoTclQfqix0-32" value="tiene un grado de" style="shape=rhombus;perimeter=rhombusPerimeter;whiteSpace=wrap;html=1;align=center;" parent="1" vertex="1">
          <mxGeometry x="380" y="532.14" width="120" height="60" as="geometry" />
        </mxCell>
        <mxCell id="xJOHi_WDOZoTclQfqix0-37" value="complejidad_id" style="ellipse;whiteSpace=wrap;html=1;align=center;fontStyle=4;" parent="1" vertex="1">
          <mxGeometry x="430" y="612.14" width="100" height="40" as="geometry" />
        </mxCell>
        <mxCell id="xJOHi_WDOZoTclQfqix0-38" value="" style="endArrow=none;html=1;rounded=0;entryX=0;entryY=1;entryDx=0;entryDy=0;exitX=0.675;exitY=0.09;exitDx=0;exitDy=0;exitPerimeter=0;" parent="1" source="xJOHi_WDOZoTclQfqix0-37" target="HWfvGFDv6Gkzwaa1oAlW-19" edge="1">
          <mxGeometry relative="1" as="geometry">
            <mxPoint x="500" y="630" as="sourcePoint" />
            <mxPoint x="660" y="630" as="targetPoint" />
          </mxGeometry>
        </mxCell>
        <mxCell id="xJOHi_WDOZoTclQfqix0-41" value="" style="endArrow=none;html=1;rounded=0;entryX=0;entryY=0;entryDx=0;entryDy=0;exitX=1;exitY=1;exitDx=0;exitDy=0;" parent="1" source="xJOHi_WDOZoTclQfqix0-6" target="HWfvGFDv6Gkzwaa1oAlW-59" edge="1">
          <mxGeometry relative="1" as="geometry">
            <mxPoint x="710" y="230" as="sourcePoint" />
            <mxPoint x="870" y="230" as="targetPoint" />
          </mxGeometry>
        </mxCell>
        <mxCell id="QEFrnaObycWSIP6j9tzF-1" value="Planta" style="shape=table;startSize=30;container=1;collapsible=1;childLayout=tableLayout;fixedRows=1;rowLines=0;fontStyle=1;align=center;resizeLast=1;html=1;" parent="1" vertex="1">
          <mxGeometry x="90" y="730" width="180" height="120" as="geometry" />
        </mxCell>
        <mxCell id="QEFrnaObycWSIP6j9tzF-2" value="" style="shape=tableRow;horizontal=0;startSize=0;swimlaneHead=0;swimlaneBody=0;fillColor=none;collapsible=0;dropTarget=0;points=[[0,0.5],[1,0.5]];portConstraint=eastwest;top=0;left=0;right=0;bottom=1;" parent="QEFrnaObycWSIP6j9tzF-1" vertex="1">
          <mxGeometry y="30" width="180" height="30" as="geometry" />
        </mxCell>
        <mxCell id="QEFrnaObycWSIP6j9tzF-3" value="PK" style="shape=partialRectangle;connectable=0;fillColor=none;top=0;left=0;bottom=0;right=0;fontStyle=1;overflow=hidden;whiteSpace=wrap;html=1;" parent="QEFrnaObycWSIP6j9tzF-2" vertex="1">
          <mxGeometry width="30" height="30" as="geometry">
            <mxRectangle width="30" height="30" as="alternateBounds" />
          </mxGeometry>
        </mxCell>
        <mxCell id="QEFrnaObycWSIP6j9tzF-4" value="id_planta" style="shape=partialRectangle;connectable=0;fillColor=none;top=0;left=0;bottom=0;right=0;align=left;spacingLeft=6;fontStyle=5;overflow=hidden;whiteSpace=wrap;html=1;" parent="QEFrnaObycWSIP6j9tzF-2" vertex="1">
          <mxGeometry x="30" width="150" height="30" as="geometry">
            <mxRectangle width="150" height="30" as="alternateBounds" />
          </mxGeometry>
        </mxCell>
        <mxCell id="QEFrnaObycWSIP6j9tzF-5" value="" style="shape=tableRow;horizontal=0;startSize=0;swimlaneHead=0;swimlaneBody=0;fillColor=none;collapsible=0;dropTarget=0;points=[[0,0.5],[1,0.5]];portConstraint=eastwest;top=0;left=0;right=0;bottom=0;" parent="QEFrnaObycWSIP6j9tzF-1" vertex="1">
          <mxGeometry y="60" width="180" height="30" as="geometry" />
        </mxCell>
        <mxCell id="QEFrnaObycWSIP6j9tzF-6" value="" style="shape=partialRectangle;connectable=0;fillColor=none;top=0;left=0;bottom=0;right=0;editable=1;overflow=hidden;whiteSpace=wrap;html=1;" parent="QEFrnaObycWSIP6j9tzF-5" vertex="1">
          <mxGeometry width="30" height="30" as="geometry">
            <mxRectangle width="30" height="30" as="alternateBounds" />
          </mxGeometry>
        </mxCell>
        <mxCell id="QEFrnaObycWSIP6j9tzF-7" value="superficie" style="shape=partialRectangle;connectable=0;fillColor=none;top=0;left=0;bottom=0;right=0;align=left;spacingLeft=6;overflow=hidden;whiteSpace=wrap;html=1;" parent="QEFrnaObycWSIP6j9tzF-5" vertex="1">
          <mxGeometry x="30" width="150" height="30" as="geometry">
            <mxRectangle width="150" height="30" as="alternateBounds" />
          </mxGeometry>
        </mxCell>
        <mxCell id="QEFrnaObycWSIP6j9tzF-8" value="" style="shape=tableRow;horizontal=0;startSize=0;swimlaneHead=0;swimlaneBody=0;fillColor=none;collapsible=0;dropTarget=0;points=[[0,0.5],[1,0.5]];portConstraint=eastwest;top=0;left=0;right=0;bottom=0;" parent="QEFrnaObycWSIP6j9tzF-1" vertex="1">
          <mxGeometry y="90" width="180" height="30" as="geometry" />
        </mxCell>
        <mxCell id="QEFrnaObycWSIP6j9tzF-9" value="FK" style="shape=partialRectangle;connectable=0;fillColor=none;top=0;left=0;bottom=0;right=0;editable=1;overflow=hidden;whiteSpace=wrap;html=1;" parent="QEFrnaObycWSIP6j9tzF-8" vertex="1">
          <mxGeometry width="30" height="30" as="geometry">
            <mxRectangle width="30" height="30" as="alternateBounds" />
          </mxGeometry>
        </mxCell>
        <mxCell id="QEFrnaObycWSIP6j9tzF-10" value="color_idcolor" style="shape=partialRectangle;connectable=0;fillColor=none;top=0;left=0;bottom=0;right=0;align=left;spacingLeft=6;overflow=hidden;whiteSpace=wrap;html=1;" parent="QEFrnaObycWSIP6j9tzF-8" vertex="1">
          <mxGeometry x="30" width="150" height="30" as="geometry">
            <mxRectangle width="150" height="30" as="alternateBounds" />
          </mxGeometry>
        </mxCell>
        <mxCell id="QEFrnaObycWSIP6j9tzF-16" value="Color" style="shape=table;startSize=30;container=1;collapsible=1;childLayout=tableLayout;fixedRows=1;rowLines=0;fontStyle=1;align=center;resizeLast=1;html=1;" parent="1" vertex="1">
          <mxGeometry x="-170" y="730" width="180" height="90" as="geometry" />
        </mxCell>
        <mxCell id="QEFrnaObycWSIP6j9tzF-17" value="" style="shape=tableRow;horizontal=0;startSize=0;swimlaneHead=0;swimlaneBody=0;fillColor=none;collapsible=0;dropTarget=0;points=[[0,0.5],[1,0.5]];portConstraint=eastwest;top=0;left=0;right=0;bottom=1;" parent="QEFrnaObycWSIP6j9tzF-16" vertex="1">
          <mxGeometry y="30" width="180" height="30" as="geometry" />
        </mxCell>
        <mxCell id="QEFrnaObycWSIP6j9tzF-18" value="PK" style="shape=partialRectangle;connectable=0;fillColor=none;top=0;left=0;bottom=0;right=0;fontStyle=1;overflow=hidden;whiteSpace=wrap;html=1;" parent="QEFrnaObycWSIP6j9tzF-17" vertex="1">
          <mxGeometry width="30" height="30" as="geometry">
            <mxRectangle width="30" height="30" as="alternateBounds" />
          </mxGeometry>
        </mxCell>
        <mxCell id="QEFrnaObycWSIP6j9tzF-19" value="id_color" style="shape=partialRectangle;connectable=0;fillColor=none;top=0;left=0;bottom=0;right=0;align=left;spacingLeft=6;fontStyle=5;overflow=hidden;whiteSpace=wrap;html=1;" parent="QEFrnaObycWSIP6j9tzF-17" vertex="1">
          <mxGeometry x="30" width="150" height="30" as="geometry">
            <mxRectangle width="150" height="30" as="alternateBounds" />
          </mxGeometry>
        </mxCell>
        <mxCell id="QEFrnaObycWSIP6j9tzF-20" value="" style="shape=tableRow;horizontal=0;startSize=0;swimlaneHead=0;swimlaneBody=0;fillColor=none;collapsible=0;dropTarget=0;points=[[0,0.5],[1,0.5]];portConstraint=eastwest;top=0;left=0;right=0;bottom=0;" parent="QEFrnaObycWSIP6j9tzF-16" vertex="1">
          <mxGeometry y="60" width="180" height="30" as="geometry" />
        </mxCell>
        <mxCell id="QEFrnaObycWSIP6j9tzF-21" value="" style="shape=partialRectangle;connectable=0;fillColor=none;top=0;left=0;bottom=0;right=0;editable=1;overflow=hidden;whiteSpace=wrap;html=1;" parent="QEFrnaObycWSIP6j9tzF-20" vertex="1">
          <mxGeometry width="30" height="30" as="geometry">
            <mxRectangle width="30" height="30" as="alternateBounds" />
          </mxGeometry>
        </mxCell>
        <mxCell id="QEFrnaObycWSIP6j9tzF-22" value="color" style="shape=partialRectangle;connectable=0;fillColor=none;top=0;left=0;bottom=0;right=0;align=left;spacingLeft=6;overflow=hidden;whiteSpace=wrap;html=1;" parent="QEFrnaObycWSIP6j9tzF-20" vertex="1">
          <mxGeometry x="30" width="150" height="30" as="geometry">
            <mxRectangle width="150" height="30" as="alternateBounds" />
          </mxGeometry>
        </mxCell>
        <mxCell id="QEFrnaObycWSIP6j9tzF-29" value="maquina_tecnico" style="shape=table;startSize=30;container=1;collapsible=1;childLayout=tableLayout;fixedRows=1;rowLines=0;fontStyle=1;align=center;resizeLast=1;html=1;" parent="1" vertex="1">
          <mxGeometry x="920" y="810" width="180" height="180" as="geometry" />
        </mxCell>
        <mxCell id="QEFrnaObycWSIP6j9tzF-30" value="" style="shape=tableRow;horizontal=0;startSize=0;swimlaneHead=0;swimlaneBody=0;fillColor=none;collapsible=0;dropTarget=0;points=[[0,0.5],[1,0.5]];portConstraint=eastwest;top=0;left=0;right=0;bottom=1;" parent="QEFrnaObycWSIP6j9tzF-29" vertex="1">
          <mxGeometry y="30" width="180" height="30" as="geometry" />
        </mxCell>
        <mxCell id="QEFrnaObycWSIP6j9tzF-31" value="PK" style="shape=partialRectangle;connectable=0;fillColor=none;top=0;left=0;bottom=0;right=0;fontStyle=1;overflow=hidden;whiteSpace=wrap;html=1;" parent="QEFrnaObycWSIP6j9tzF-30" vertex="1">
          <mxGeometry width="30" height="30" as="geometry">
            <mxRectangle width="30" height="30" as="alternateBounds" />
          </mxGeometry>
        </mxCell>
        <mxCell id="QEFrnaObycWSIP6j9tzF-32" value="ID" style="shape=partialRectangle;connectable=0;fillColor=none;top=0;left=0;bottom=0;right=0;align=left;spacingLeft=6;fontStyle=5;overflow=hidden;whiteSpace=wrap;html=1;" parent="QEFrnaObycWSIP6j9tzF-30" vertex="1">
          <mxGeometry x="30" width="150" height="30" as="geometry">
            <mxRectangle width="150" height="30" as="alternateBounds" />
          </mxGeometry>
        </mxCell>
        <mxCell id="QEFrnaObycWSIP6j9tzF-33" value="" style="shape=tableRow;horizontal=0;startSize=0;swimlaneHead=0;swimlaneBody=0;fillColor=none;collapsible=0;dropTarget=0;points=[[0,0.5],[1,0.5]];portConstraint=eastwest;top=0;left=0;right=0;bottom=0;" parent="QEFrnaObycWSIP6j9tzF-29" vertex="1">
          <mxGeometry y="60" width="180" height="30" as="geometry" />
        </mxCell>
        <mxCell id="QEFrnaObycWSIP6j9tzF-34" value="" style="shape=partialRectangle;connectable=0;fillColor=none;top=0;left=0;bottom=0;right=0;editable=1;overflow=hidden;whiteSpace=wrap;html=1;" parent="QEFrnaObycWSIP6j9tzF-33" vertex="1">
          <mxGeometry width="30" height="30" as="geometry">
            <mxRectangle width="30" height="30" as="alternateBounds" />
          </mxGeometry>
        </mxCell>
        <mxCell id="QEFrnaObycWSIP6j9tzF-35" value="fecha_inicio" style="shape=partialRectangle;connectable=0;fillColor=none;top=0;left=0;bottom=0;right=0;align=left;spacingLeft=6;overflow=hidden;whiteSpace=wrap;html=1;" parent="QEFrnaObycWSIP6j9tzF-33" vertex="1">
          <mxGeometry x="30" width="150" height="30" as="geometry">
            <mxRectangle width="150" height="30" as="alternateBounds" />
          </mxGeometry>
        </mxCell>
        <mxCell id="QEFrnaObycWSIP6j9tzF-36" value="" style="shape=tableRow;horizontal=0;startSize=0;swimlaneHead=0;swimlaneBody=0;fillColor=none;collapsible=0;dropTarget=0;points=[[0,0.5],[1,0.5]];portConstraint=eastwest;top=0;left=0;right=0;bottom=0;" parent="QEFrnaObycWSIP6j9tzF-29" vertex="1">
          <mxGeometry y="90" width="180" height="30" as="geometry" />
        </mxCell>
        <mxCell id="QEFrnaObycWSIP6j9tzF-37" value="" style="shape=partialRectangle;connectable=0;fillColor=none;top=0;left=0;bottom=0;right=0;editable=1;overflow=hidden;whiteSpace=wrap;html=1;" parent="QEFrnaObycWSIP6j9tzF-36" vertex="1">
          <mxGeometry width="30" height="30" as="geometry">
            <mxRectangle width="30" height="30" as="alternateBounds" />
          </mxGeometry>
        </mxCell>
        <mxCell id="QEFrnaObycWSIP6j9tzF-38" value="fecha_fin" style="shape=partialRectangle;connectable=0;fillColor=none;top=0;left=0;bottom=0;right=0;align=left;spacingLeft=6;overflow=hidden;whiteSpace=wrap;html=1;" parent="QEFrnaObycWSIP6j9tzF-36" vertex="1">
          <mxGeometry x="30" width="150" height="30" as="geometry">
            <mxRectangle width="150" height="30" as="alternateBounds" />
          </mxGeometry>
        </mxCell>
        <mxCell id="QEFrnaObycWSIP6j9tzF-39" value="" style="shape=tableRow;horizontal=0;startSize=0;swimlaneHead=0;swimlaneBody=0;fillColor=none;collapsible=0;dropTarget=0;points=[[0,0.5],[1,0.5]];portConstraint=eastwest;top=0;left=0;right=0;bottom=0;" parent="QEFrnaObycWSIP6j9tzF-29" vertex="1">
          <mxGeometry y="120" width="180" height="30" as="geometry" />
        </mxCell>
        <mxCell id="QEFrnaObycWSIP6j9tzF-40" value="FK" style="shape=partialRectangle;connectable=0;fillColor=none;top=0;left=0;bottom=0;right=0;editable=1;overflow=hidden;whiteSpace=wrap;html=1;" parent="QEFrnaObycWSIP6j9tzF-39" vertex="1">
          <mxGeometry width="30" height="30" as="geometry">
            <mxRectangle width="30" height="30" as="alternateBounds" />
          </mxGeometry>
        </mxCell>
        <mxCell id="QEFrnaObycWSIP6j9tzF-41" value="tecnico_idtecnico" style="shape=partialRectangle;connectable=0;fillColor=none;top=0;left=0;bottom=0;right=0;align=left;spacingLeft=6;overflow=hidden;whiteSpace=wrap;html=1;" parent="QEFrnaObycWSIP6j9tzF-39" vertex="1">
          <mxGeometry x="30" width="150" height="30" as="geometry">
            <mxRectangle width="150" height="30" as="alternateBounds" />
          </mxGeometry>
        </mxCell>
        <mxCell id="Vgf7w_rn2fsOI5EVaODt-91" value="" style="shape=tableRow;horizontal=0;startSize=0;swimlaneHead=0;swimlaneBody=0;fillColor=none;collapsible=0;dropTarget=0;points=[[0,0.5],[1,0.5]];portConstraint=eastwest;top=0;left=0;right=0;bottom=0;" vertex="1" parent="QEFrnaObycWSIP6j9tzF-29">
          <mxGeometry y="150" width="180" height="30" as="geometry" />
        </mxCell>
        <mxCell id="Vgf7w_rn2fsOI5EVaODt-92" value="FK" style="shape=partialRectangle;connectable=0;fillColor=none;top=0;left=0;bottom=0;right=0;editable=1;overflow=hidden;whiteSpace=wrap;html=1;" vertex="1" parent="Vgf7w_rn2fsOI5EVaODt-91">
          <mxGeometry width="30" height="30" as="geometry">
            <mxRectangle width="30" height="30" as="alternateBounds" />
          </mxGeometry>
        </mxCell>
        <mxCell id="Vgf7w_rn2fsOI5EVaODt-93" value="maquina_idmaquina" style="shape=partialRectangle;connectable=0;fillColor=none;top=0;left=0;bottom=0;right=0;align=left;spacingLeft=6;overflow=hidden;whiteSpace=wrap;html=1;" vertex="1" parent="Vgf7w_rn2fsOI5EVaODt-91">
          <mxGeometry x="30" width="150" height="30" as="geometry">
            <mxRectangle width="150" height="30" as="alternateBounds" />
          </mxGeometry>
        </mxCell>
        <mxCell id="QEFrnaObycWSIP6j9tzF-42" value="Proceso" style="shape=table;startSize=30;container=1;collapsible=1;childLayout=tableLayout;fixedRows=1;rowLines=0;fontStyle=1;align=center;resizeLast=1;html=1;" parent="1" vertex="1">
          <mxGeometry x="340" y="915" width="190" height="150" as="geometry" />
        </mxCell>
        <mxCell id="QEFrnaObycWSIP6j9tzF-43" value="" style="shape=tableRow;horizontal=0;startSize=0;swimlaneHead=0;swimlaneBody=0;fillColor=none;collapsible=0;dropTarget=0;points=[[0,0.5],[1,0.5]];portConstraint=eastwest;top=0;left=0;right=0;bottom=1;" parent="QEFrnaObycWSIP6j9tzF-42" vertex="1">
          <mxGeometry y="30" width="190" height="30" as="geometry" />
        </mxCell>
        <mxCell id="QEFrnaObycWSIP6j9tzF-44" value="PK" style="shape=partialRectangle;connectable=0;fillColor=none;top=0;left=0;bottom=0;right=0;fontStyle=1;overflow=hidden;whiteSpace=wrap;html=1;" parent="QEFrnaObycWSIP6j9tzF-43" vertex="1">
          <mxGeometry width="30" height="30" as="geometry">
            <mxRectangle width="30" height="30" as="alternateBounds" />
          </mxGeometry>
        </mxCell>
        <mxCell id="QEFrnaObycWSIP6j9tzF-45" value="id_proceso" style="shape=partialRectangle;connectable=0;fillColor=none;top=0;left=0;bottom=0;right=0;align=left;spacingLeft=6;fontStyle=5;overflow=hidden;whiteSpace=wrap;html=1;" parent="QEFrnaObycWSIP6j9tzF-43" vertex="1">
          <mxGeometry x="30" width="160" height="30" as="geometry">
            <mxRectangle width="160" height="30" as="alternateBounds" />
          </mxGeometry>
        </mxCell>
        <mxCell id="QEFrnaObycWSIP6j9tzF-46" value="" style="shape=tableRow;horizontal=0;startSize=0;swimlaneHead=0;swimlaneBody=0;fillColor=none;collapsible=0;dropTarget=0;points=[[0,0.5],[1,0.5]];portConstraint=eastwest;top=0;left=0;right=0;bottom=0;" parent="QEFrnaObycWSIP6j9tzF-42" vertex="1">
          <mxGeometry y="60" width="190" height="30" as="geometry" />
        </mxCell>
        <mxCell id="QEFrnaObycWSIP6j9tzF-47" value="" style="shape=partialRectangle;connectable=0;fillColor=none;top=0;left=0;bottom=0;right=0;editable=1;overflow=hidden;whiteSpace=wrap;html=1;" parent="QEFrnaObycWSIP6j9tzF-46" vertex="1">
          <mxGeometry width="30" height="30" as="geometry">
            <mxRectangle width="30" height="30" as="alternateBounds" />
          </mxGeometry>
        </mxCell>
        <mxCell id="QEFrnaObycWSIP6j9tzF-48" value="nombre" style="shape=partialRectangle;connectable=0;fillColor=none;top=0;left=0;bottom=0;right=0;align=left;spacingLeft=6;overflow=hidden;whiteSpace=wrap;html=1;" parent="QEFrnaObycWSIP6j9tzF-46" vertex="1">
          <mxGeometry x="30" width="160" height="30" as="geometry">
            <mxRectangle width="160" height="30" as="alternateBounds" />
          </mxGeometry>
        </mxCell>
        <mxCell id="QEFrnaObycWSIP6j9tzF-49" value="" style="shape=tableRow;horizontal=0;startSize=0;swimlaneHead=0;swimlaneBody=0;fillColor=none;collapsible=0;dropTarget=0;points=[[0,0.5],[1,0.5]];portConstraint=eastwest;top=0;left=0;right=0;bottom=0;" parent="QEFrnaObycWSIP6j9tzF-42" vertex="1">
          <mxGeometry y="90" width="190" height="30" as="geometry" />
        </mxCell>
        <mxCell id="QEFrnaObycWSIP6j9tzF-50" value="FK" style="shape=partialRectangle;connectable=0;fillColor=none;top=0;left=0;bottom=0;right=0;editable=1;overflow=hidden;whiteSpace=wrap;html=1;" parent="QEFrnaObycWSIP6j9tzF-49" vertex="1">
          <mxGeometry width="30" height="30" as="geometry">
            <mxRectangle width="30" height="30" as="alternateBounds" />
          </mxGeometry>
        </mxCell>
        <mxCell id="QEFrnaObycWSIP6j9tzF-51" value="complejidad_idcomplejidad" style="shape=partialRectangle;connectable=0;fillColor=none;top=0;left=0;bottom=0;right=0;align=left;spacingLeft=6;overflow=hidden;whiteSpace=wrap;html=1;" parent="QEFrnaObycWSIP6j9tzF-49" vertex="1">
          <mxGeometry x="30" width="160" height="30" as="geometry">
            <mxRectangle width="160" height="30" as="alternateBounds" />
          </mxGeometry>
        </mxCell>
        <mxCell id="QEFrnaObycWSIP6j9tzF-52" value="" style="shape=tableRow;horizontal=0;startSize=0;swimlaneHead=0;swimlaneBody=0;fillColor=none;collapsible=0;dropTarget=0;points=[[0,0.5],[1,0.5]];portConstraint=eastwest;top=0;left=0;right=0;bottom=0;" parent="QEFrnaObycWSIP6j9tzF-42" vertex="1">
          <mxGeometry y="120" width="190" height="30" as="geometry" />
        </mxCell>
        <mxCell id="QEFrnaObycWSIP6j9tzF-53" value="" style="shape=partialRectangle;connectable=0;fillColor=none;top=0;left=0;bottom=0;right=0;editable=1;overflow=hidden;whiteSpace=wrap;html=1;" parent="QEFrnaObycWSIP6j9tzF-52" vertex="1">
          <mxGeometry width="30" height="30" as="geometry">
            <mxRectangle width="30" height="30" as="alternateBounds" />
          </mxGeometry>
        </mxCell>
        <mxCell id="QEFrnaObycWSIP6j9tzF-54" value="Row 3" style="shape=partialRectangle;connectable=0;fillColor=none;top=0;left=0;bottom=0;right=0;align=left;spacingLeft=6;overflow=hidden;whiteSpace=wrap;html=1;" parent="QEFrnaObycWSIP6j9tzF-52" vertex="1">
          <mxGeometry x="30" width="160" height="30" as="geometry">
            <mxRectangle width="160" height="30" as="alternateBounds" />
          </mxGeometry>
        </mxCell>
        <mxCell id="QEFrnaObycWSIP6j9tzF-55" value="Maquina" style="shape=table;startSize=30;container=1;collapsible=1;childLayout=tableLayout;fixedRows=1;rowLines=0;fontStyle=1;align=center;resizeLast=1;html=1;" parent="1" vertex="1">
          <mxGeometry x="590" y="720" width="180" height="150" as="geometry" />
        </mxCell>
        <mxCell id="QEFrnaObycWSIP6j9tzF-56" value="" style="shape=tableRow;horizontal=0;startSize=0;swimlaneHead=0;swimlaneBody=0;fillColor=none;collapsible=0;dropTarget=0;points=[[0,0.5],[1,0.5]];portConstraint=eastwest;top=0;left=0;right=0;bottom=1;" parent="QEFrnaObycWSIP6j9tzF-55" vertex="1">
          <mxGeometry y="30" width="180" height="30" as="geometry" />
        </mxCell>
        <mxCell id="QEFrnaObycWSIP6j9tzF-57" value="PK" style="shape=partialRectangle;connectable=0;fillColor=none;top=0;left=0;bottom=0;right=0;fontStyle=1;overflow=hidden;whiteSpace=wrap;html=1;" parent="QEFrnaObycWSIP6j9tzF-56" vertex="1">
          <mxGeometry width="30" height="30" as="geometry">
            <mxRectangle width="30" height="30" as="alternateBounds" />
          </mxGeometry>
        </mxCell>
        <mxCell id="QEFrnaObycWSIP6j9tzF-58" value="id_numero" style="shape=partialRectangle;connectable=0;fillColor=none;top=0;left=0;bottom=0;right=0;align=left;spacingLeft=6;fontStyle=5;overflow=hidden;whiteSpace=wrap;html=1;" parent="QEFrnaObycWSIP6j9tzF-56" vertex="1">
          <mxGeometry x="30" width="150" height="30" as="geometry">
            <mxRectangle width="150" height="30" as="alternateBounds" />
          </mxGeometry>
        </mxCell>
        <mxCell id="QEFrnaObycWSIP6j9tzF-59" value="" style="shape=tableRow;horizontal=0;startSize=0;swimlaneHead=0;swimlaneBody=0;fillColor=none;collapsible=0;dropTarget=0;points=[[0,0.5],[1,0.5]];portConstraint=eastwest;top=0;left=0;right=0;bottom=0;" parent="QEFrnaObycWSIP6j9tzF-55" vertex="1">
          <mxGeometry y="60" width="180" height="30" as="geometry" />
        </mxCell>
        <mxCell id="QEFrnaObycWSIP6j9tzF-60" value="" style="shape=partialRectangle;connectable=0;fillColor=none;top=0;left=0;bottom=0;right=0;editable=1;overflow=hidden;whiteSpace=wrap;html=1;" parent="QEFrnaObycWSIP6j9tzF-59" vertex="1">
          <mxGeometry width="30" height="30" as="geometry">
            <mxRectangle width="30" height="30" as="alternateBounds" />
          </mxGeometry>
        </mxCell>
        <mxCell id="QEFrnaObycWSIP6j9tzF-61" value="id_reemplazo" style="shape=partialRectangle;connectable=0;fillColor=none;top=0;left=0;bottom=0;right=0;align=left;spacingLeft=6;overflow=hidden;whiteSpace=wrap;html=1;" parent="QEFrnaObycWSIP6j9tzF-59" vertex="1">
          <mxGeometry x="30" width="150" height="30" as="geometry">
            <mxRectangle width="150" height="30" as="alternateBounds" />
          </mxGeometry>
        </mxCell>
        <mxCell id="QEFrnaObycWSIP6j9tzF-62" value="" style="shape=tableRow;horizontal=0;startSize=0;swimlaneHead=0;swimlaneBody=0;fillColor=none;collapsible=0;dropTarget=0;points=[[0,0.5],[1,0.5]];portConstraint=eastwest;top=0;left=0;right=0;bottom=0;" parent="QEFrnaObycWSIP6j9tzF-55" vertex="1">
          <mxGeometry y="90" width="180" height="30" as="geometry" />
        </mxCell>
        <mxCell id="QEFrnaObycWSIP6j9tzF-63" value="" style="shape=partialRectangle;connectable=0;fillColor=none;top=0;left=0;bottom=0;right=0;editable=1;overflow=hidden;whiteSpace=wrap;html=1;" parent="QEFrnaObycWSIP6j9tzF-62" vertex="1">
          <mxGeometry width="30" height="30" as="geometry">
            <mxRectangle width="30" height="30" as="alternateBounds" />
          </mxGeometry>
        </mxCell>
        <mxCell id="QEFrnaObycWSIP6j9tzF-64" value="marca" style="shape=partialRectangle;connectable=0;fillColor=none;top=0;left=0;bottom=0;right=0;align=left;spacingLeft=6;overflow=hidden;whiteSpace=wrap;html=1;" parent="QEFrnaObycWSIP6j9tzF-62" vertex="1">
          <mxGeometry x="30" width="150" height="30" as="geometry">
            <mxRectangle width="150" height="30" as="alternateBounds" />
          </mxGeometry>
        </mxCell>
        <mxCell id="QEFrnaObycWSIP6j9tzF-65" value="" style="shape=tableRow;horizontal=0;startSize=0;swimlaneHead=0;swimlaneBody=0;fillColor=none;collapsible=0;dropTarget=0;points=[[0,0.5],[1,0.5]];portConstraint=eastwest;top=0;left=0;right=0;bottom=0;" parent="QEFrnaObycWSIP6j9tzF-55" vertex="1">
          <mxGeometry y="120" width="180" height="30" as="geometry" />
        </mxCell>
        <mxCell id="QEFrnaObycWSIP6j9tzF-66" value="" style="shape=partialRectangle;connectable=0;fillColor=none;top=0;left=0;bottom=0;right=0;editable=1;overflow=hidden;whiteSpace=wrap;html=1;" parent="QEFrnaObycWSIP6j9tzF-65" vertex="1">
          <mxGeometry width="30" height="30" as="geometry">
            <mxRectangle width="30" height="30" as="alternateBounds" />
          </mxGeometry>
        </mxCell>
        <mxCell id="QEFrnaObycWSIP6j9tzF-67" value="modelo" style="shape=partialRectangle;connectable=0;fillColor=none;top=0;left=0;bottom=0;right=0;align=left;spacingLeft=6;overflow=hidden;whiteSpace=wrap;html=1;" parent="QEFrnaObycWSIP6j9tzF-65" vertex="1">
          <mxGeometry x="30" width="150" height="30" as="geometry">
            <mxRectangle width="150" height="30" as="alternateBounds" />
          </mxGeometry>
        </mxCell>
        <object label="Tecnico" id="QEFrnaObycWSIP6j9tzF-68">
          <mxCell style="shape=table;startSize=30;container=1;collapsible=1;childLayout=tableLayout;fixedRows=1;rowLines=0;fontStyle=1;align=center;resizeLast=1;html=1;points=[[0,0,0,0,0],[0,0.25,0,0,0],[0,0.5,0,0,0],[0,0.75,0,0,0],[0,1,0,0,0],[0.25,0,0,0,0],[0.25,1,0,0,0],[0.5,0,0,0,0],[0.5,1,0,0,0],[0.75,0,0,0,0],[0.75,1,0,0,0],[1,0,0,0,0],[1,0.25,0,0,0],[1,0.5,0,0,0],[1,0.75,0,0,0],[1,1,0,0,0]];" parent="1" vertex="1">
            <mxGeometry x="590" y="920" width="180" height="240" as="geometry">
              <mxRectangle x="1200" y="504.28" width="80" height="30" as="alternateBounds" />
            </mxGeometry>
          </mxCell>
        </object>
        <mxCell id="QEFrnaObycWSIP6j9tzF-69" value="" style="shape=tableRow;horizontal=0;startSize=0;swimlaneHead=0;swimlaneBody=0;fillColor=none;collapsible=0;dropTarget=0;points=[[0,0.5],[1,0.5]];portConstraint=eastwest;top=0;left=0;right=0;bottom=1;" parent="QEFrnaObycWSIP6j9tzF-68" vertex="1">
          <mxGeometry y="30" width="180" height="30" as="geometry" />
        </mxCell>
        <mxCell id="QEFrnaObycWSIP6j9tzF-70" value="PK" style="shape=partialRectangle;connectable=0;fillColor=none;top=0;left=0;bottom=0;right=0;fontStyle=1;overflow=hidden;whiteSpace=wrap;html=1;" parent="QEFrnaObycWSIP6j9tzF-69" vertex="1">
          <mxGeometry width="30" height="30" as="geometry">
            <mxRectangle width="30" height="30" as="alternateBounds" />
          </mxGeometry>
        </mxCell>
        <mxCell id="QEFrnaObycWSIP6j9tzF-71" value="id_tecnico" style="shape=partialRectangle;connectable=0;fillColor=none;top=0;left=0;bottom=0;right=0;align=left;spacingLeft=6;fontStyle=5;overflow=hidden;whiteSpace=wrap;html=1;" parent="QEFrnaObycWSIP6j9tzF-69" vertex="1">
          <mxGeometry x="30" width="150" height="30" as="geometry">
            <mxRectangle width="150" height="30" as="alternateBounds" />
          </mxGeometry>
        </mxCell>
        <mxCell id="QEFrnaObycWSIP6j9tzF-72" value="" style="shape=tableRow;horizontal=0;startSize=0;swimlaneHead=0;swimlaneBody=0;fillColor=none;collapsible=0;dropTarget=0;points=[[0,0.5],[1,0.5]];portConstraint=eastwest;top=0;left=0;right=0;bottom=0;" parent="QEFrnaObycWSIP6j9tzF-68" vertex="1">
          <mxGeometry y="60" width="180" height="30" as="geometry" />
        </mxCell>
        <mxCell id="QEFrnaObycWSIP6j9tzF-73" value="" style="shape=partialRectangle;connectable=0;fillColor=none;top=0;left=0;bottom=0;right=0;editable=1;overflow=hidden;whiteSpace=wrap;html=1;" parent="QEFrnaObycWSIP6j9tzF-72" vertex="1">
          <mxGeometry width="30" height="30" as="geometry">
            <mxRectangle width="30" height="30" as="alternateBounds" />
          </mxGeometry>
        </mxCell>
        <mxCell id="QEFrnaObycWSIP6j9tzF-74" value="DNI" style="shape=partialRectangle;connectable=0;fillColor=none;top=0;left=0;bottom=0;right=0;align=left;spacingLeft=6;overflow=hidden;whiteSpace=wrap;html=1;" parent="QEFrnaObycWSIP6j9tzF-72" vertex="1">
          <mxGeometry x="30" width="150" height="30" as="geometry">
            <mxRectangle width="150" height="30" as="alternateBounds" />
          </mxGeometry>
        </mxCell>
        <mxCell id="QEFrnaObycWSIP6j9tzF-75" value="" style="shape=tableRow;horizontal=0;startSize=0;swimlaneHead=0;swimlaneBody=0;fillColor=none;collapsible=0;dropTarget=0;points=[[0,0.5],[1,0.5]];portConstraint=eastwest;top=0;left=0;right=0;bottom=0;" parent="QEFrnaObycWSIP6j9tzF-68" vertex="1">
          <mxGeometry y="90" width="180" height="30" as="geometry" />
        </mxCell>
        <mxCell id="QEFrnaObycWSIP6j9tzF-76" value="" style="shape=partialRectangle;connectable=0;fillColor=none;top=0;left=0;bottom=0;right=0;editable=1;overflow=hidden;whiteSpace=wrap;html=1;" parent="QEFrnaObycWSIP6j9tzF-75" vertex="1">
          <mxGeometry width="30" height="30" as="geometry">
            <mxRectangle width="30" height="30" as="alternateBounds" />
          </mxGeometry>
        </mxCell>
        <mxCell id="QEFrnaObycWSIP6j9tzF-77" value="nombre" style="shape=partialRectangle;connectable=0;fillColor=none;top=0;left=0;bottom=0;right=0;align=left;spacingLeft=6;overflow=hidden;whiteSpace=wrap;html=1;" parent="QEFrnaObycWSIP6j9tzF-75" vertex="1">
          <mxGeometry x="30" width="150" height="30" as="geometry">
            <mxRectangle width="150" height="30" as="alternateBounds" />
          </mxGeometry>
        </mxCell>
        <mxCell id="QEFrnaObycWSIP6j9tzF-78" value="" style="shape=tableRow;horizontal=0;startSize=0;swimlaneHead=0;swimlaneBody=0;fillColor=none;collapsible=0;dropTarget=0;points=[[0,0.5],[1,0.5]];portConstraint=eastwest;top=0;left=0;right=0;bottom=0;" parent="QEFrnaObycWSIP6j9tzF-68" vertex="1">
          <mxGeometry y="120" width="180" height="30" as="geometry" />
        </mxCell>
        <mxCell id="QEFrnaObycWSIP6j9tzF-79" value="" style="shape=partialRectangle;connectable=0;fillColor=none;top=0;left=0;bottom=0;right=0;editable=1;overflow=hidden;whiteSpace=wrap;html=1;" parent="QEFrnaObycWSIP6j9tzF-78" vertex="1">
          <mxGeometry width="30" height="30" as="geometry">
            <mxRectangle width="30" height="30" as="alternateBounds" />
          </mxGeometry>
        </mxCell>
        <mxCell id="QEFrnaObycWSIP6j9tzF-80" value="apellido" style="shape=partialRectangle;connectable=0;fillColor=none;top=0;left=0;bottom=0;right=0;align=left;spacingLeft=6;overflow=hidden;whiteSpace=wrap;html=1;" parent="QEFrnaObycWSIP6j9tzF-78" vertex="1">
          <mxGeometry x="30" width="150" height="30" as="geometry">
            <mxRectangle width="150" height="30" as="alternateBounds" />
          </mxGeometry>
        </mxCell>
        <mxCell id="Vgf7w_rn2fsOI5EVaODt-15" value="" style="shape=tableRow;horizontal=0;startSize=0;swimlaneHead=0;swimlaneBody=0;fillColor=none;collapsible=0;dropTarget=0;points=[[0,0.5],[1,0.5]];portConstraint=eastwest;top=0;left=0;right=0;bottom=0;" vertex="1" parent="QEFrnaObycWSIP6j9tzF-68">
          <mxGeometry y="150" width="180" height="30" as="geometry" />
        </mxCell>
        <mxCell id="Vgf7w_rn2fsOI5EVaODt-16" value="" style="shape=partialRectangle;connectable=0;fillColor=none;top=0;left=0;bottom=0;right=0;editable=1;overflow=hidden;whiteSpace=wrap;html=1;" vertex="1" parent="Vgf7w_rn2fsOI5EVaODt-15">
          <mxGeometry width="30" height="30" as="geometry">
            <mxRectangle width="30" height="30" as="alternateBounds" />
          </mxGeometry>
        </mxCell>
        <mxCell id="Vgf7w_rn2fsOI5EVaODt-17" value="fecha_nacimiento" style="shape=partialRectangle;connectable=0;fillColor=none;top=0;left=0;bottom=0;right=0;align=left;spacingLeft=6;overflow=hidden;whiteSpace=wrap;html=1;" vertex="1" parent="Vgf7w_rn2fsOI5EVaODt-15">
          <mxGeometry x="30" width="150" height="30" as="geometry">
            <mxRectangle width="150" height="30" as="alternateBounds" />
          </mxGeometry>
        </mxCell>
        <mxCell id="Vgf7w_rn2fsOI5EVaODt-34" value="" style="shape=tableRow;horizontal=0;startSize=0;swimlaneHead=0;swimlaneBody=0;fillColor=none;collapsible=0;dropTarget=0;points=[[0,0.5],[1,0.5]];portConstraint=eastwest;top=0;left=0;right=0;bottom=0;" vertex="1" parent="QEFrnaObycWSIP6j9tzF-68">
          <mxGeometry y="180" width="180" height="30" as="geometry" />
        </mxCell>
        <mxCell id="Vgf7w_rn2fsOI5EVaODt-35" value="" style="shape=partialRectangle;connectable=0;fillColor=none;top=0;left=0;bottom=0;right=0;editable=1;overflow=hidden;whiteSpace=wrap;html=1;" vertex="1" parent="Vgf7w_rn2fsOI5EVaODt-34">
          <mxGeometry width="30" height="30" as="geometry">
            <mxRectangle width="30" height="30" as="alternateBounds" />
          </mxGeometry>
        </mxCell>
        <mxCell id="Vgf7w_rn2fsOI5EVaODt-36" value="num_telefonicos" style="shape=partialRectangle;connectable=0;fillColor=none;top=0;left=0;bottom=0;right=0;align=left;spacingLeft=6;overflow=hidden;whiteSpace=wrap;html=1;" vertex="1" parent="Vgf7w_rn2fsOI5EVaODt-34">
          <mxGeometry x="30" width="150" height="30" as="geometry">
            <mxRectangle width="150" height="30" as="alternateBounds" />
          </mxGeometry>
        </mxCell>
        <mxCell id="Vgf7w_rn2fsOI5EVaODt-37" value="" style="shape=tableRow;horizontal=0;startSize=0;swimlaneHead=0;swimlaneBody=0;fillColor=none;collapsible=0;dropTarget=0;points=[[0,0.5],[1,0.5]];portConstraint=eastwest;top=0;left=0;right=0;bottom=0;" vertex="1" parent="QEFrnaObycWSIP6j9tzF-68">
          <mxGeometry y="210" width="180" height="30" as="geometry" />
        </mxCell>
        <mxCell id="Vgf7w_rn2fsOI5EVaODt-38" value="FK" style="shape=partialRectangle;connectable=0;fillColor=none;top=0;left=0;bottom=0;right=0;editable=1;overflow=hidden;whiteSpace=wrap;html=1;" vertex="1" parent="Vgf7w_rn2fsOI5EVaODt-37">
          <mxGeometry width="30" height="30" as="geometry">
            <mxRectangle width="30" height="30" as="alternateBounds" />
          </mxGeometry>
        </mxCell>
        <mxCell id="Vgf7w_rn2fsOI5EVaODt-39" value="maquina_idnumero" style="shape=partialRectangle;connectable=0;fillColor=none;top=0;left=0;bottom=0;right=0;align=left;spacingLeft=6;overflow=hidden;whiteSpace=wrap;html=1;" vertex="1" parent="Vgf7w_rn2fsOI5EVaODt-37">
          <mxGeometry x="30" width="150" height="30" as="geometry">
            <mxRectangle width="150" height="30" as="alternateBounds" />
          </mxGeometry>
        </mxCell>
        <mxCell id="Vgf7w_rn2fsOI5EVaODt-40" value="" style="edgeStyle=entityRelationEdgeStyle;fontSize=12;html=1;endArrow=ERmandOne;startArrow=ERmandOne;rounded=0;exitX=1.001;exitY=0.797;exitDx=0;exitDy=0;exitPerimeter=0;entryX=0.003;entryY=0.785;entryDx=0;entryDy=0;entryPerimeter=0;" edge="1" parent="1" source="QEFrnaObycWSIP6j9tzF-20" target="QEFrnaObycWSIP6j9tzF-5">
          <mxGeometry width="100" height="100" relative="1" as="geometry">
            <mxPoint x="10" y="890" as="sourcePoint" />
            <mxPoint x="100" y="790" as="targetPoint" />
          </mxGeometry>
        </mxCell>
        <mxCell id="Vgf7w_rn2fsOI5EVaODt-74" value="planta_maquina" style="shape=table;startSize=30;container=1;collapsible=1;childLayout=tableLayout;fixedRows=1;rowLines=0;fontStyle=1;align=center;resizeLast=1;html=1;" vertex="1" parent="1">
          <mxGeometry x="340" y="735" width="180" height="120" as="geometry" />
        </mxCell>
        <mxCell id="Vgf7w_rn2fsOI5EVaODt-75" value="" style="shape=tableRow;horizontal=0;startSize=0;swimlaneHead=0;swimlaneBody=0;fillColor=none;collapsible=0;dropTarget=0;points=[[0,0.5],[1,0.5]];portConstraint=eastwest;top=0;left=0;right=0;bottom=1;" vertex="1" parent="Vgf7w_rn2fsOI5EVaODt-74">
          <mxGeometry y="30" width="180" height="30" as="geometry" />
        </mxCell>
        <mxCell id="Vgf7w_rn2fsOI5EVaODt-76" value="PK" style="shape=partialRectangle;connectable=0;fillColor=none;top=0;left=0;bottom=0;right=0;fontStyle=1;overflow=hidden;whiteSpace=wrap;html=1;" vertex="1" parent="Vgf7w_rn2fsOI5EVaODt-75">
          <mxGeometry width="30" height="30" as="geometry">
            <mxRectangle width="30" height="30" as="alternateBounds" />
          </mxGeometry>
        </mxCell>
        <mxCell id="Vgf7w_rn2fsOI5EVaODt-77" value="ID" style="shape=partialRectangle;connectable=0;fillColor=none;top=0;left=0;bottom=0;right=0;align=left;spacingLeft=6;fontStyle=5;overflow=hidden;whiteSpace=wrap;html=1;" vertex="1" parent="Vgf7w_rn2fsOI5EVaODt-75">
          <mxGeometry x="30" width="150" height="30" as="geometry">
            <mxRectangle width="150" height="30" as="alternateBounds" />
          </mxGeometry>
        </mxCell>
        <mxCell id="Vgf7w_rn2fsOI5EVaODt-78" value="" style="shape=tableRow;horizontal=0;startSize=0;swimlaneHead=0;swimlaneBody=0;fillColor=none;collapsible=0;dropTarget=0;points=[[0,0.5],[1,0.5]];portConstraint=eastwest;top=0;left=0;right=0;bottom=0;" vertex="1" parent="Vgf7w_rn2fsOI5EVaODt-74">
          <mxGeometry y="60" width="180" height="20" as="geometry" />
        </mxCell>
        <mxCell id="Vgf7w_rn2fsOI5EVaODt-79" value="FK" style="shape=partialRectangle;connectable=0;fillColor=none;top=0;left=0;bottom=0;right=0;editable=1;overflow=hidden;whiteSpace=wrap;html=1;" vertex="1" parent="Vgf7w_rn2fsOI5EVaODt-78">
          <mxGeometry width="30" height="20" as="geometry">
            <mxRectangle width="30" height="20" as="alternateBounds" />
          </mxGeometry>
        </mxCell>
        <mxCell id="Vgf7w_rn2fsOI5EVaODt-80" value="maquina_idnumero" style="shape=partialRectangle;connectable=0;fillColor=none;top=0;left=0;bottom=0;right=0;align=left;spacingLeft=6;overflow=hidden;whiteSpace=wrap;html=1;" vertex="1" parent="Vgf7w_rn2fsOI5EVaODt-78">
          <mxGeometry x="30" width="150" height="20" as="geometry">
            <mxRectangle width="150" height="20" as="alternateBounds" />
          </mxGeometry>
        </mxCell>
        <mxCell id="Vgf7w_rn2fsOI5EVaODt-81" value="" style="shape=tableRow;horizontal=0;startSize=0;swimlaneHead=0;swimlaneBody=0;fillColor=none;collapsible=0;dropTarget=0;points=[[0,0.5],[1,0.5]];portConstraint=eastwest;top=0;left=0;right=0;bottom=0;" vertex="1" parent="Vgf7w_rn2fsOI5EVaODt-74">
          <mxGeometry y="80" width="180" height="20" as="geometry" />
        </mxCell>
        <mxCell id="Vgf7w_rn2fsOI5EVaODt-82" value="FK" style="shape=partialRectangle;connectable=0;fillColor=none;top=0;left=0;bottom=0;right=0;editable=1;overflow=hidden;whiteSpace=wrap;html=1;" vertex="1" parent="Vgf7w_rn2fsOI5EVaODt-81">
          <mxGeometry width="30" height="20" as="geometry">
            <mxRectangle width="30" height="20" as="alternateBounds" />
          </mxGeometry>
        </mxCell>
        <mxCell id="Vgf7w_rn2fsOI5EVaODt-83" value="planta_idplanta" style="shape=partialRectangle;connectable=0;fillColor=none;top=0;left=0;bottom=0;right=0;align=left;spacingLeft=6;overflow=hidden;whiteSpace=wrap;html=1;" vertex="1" parent="Vgf7w_rn2fsOI5EVaODt-81">
          <mxGeometry x="30" width="150" height="20" as="geometry">
            <mxRectangle width="150" height="20" as="alternateBounds" />
          </mxGeometry>
        </mxCell>
        <mxCell id="Vgf7w_rn2fsOI5EVaODt-84" value="" style="shape=tableRow;horizontal=0;startSize=0;swimlaneHead=0;swimlaneBody=0;fillColor=none;collapsible=0;dropTarget=0;points=[[0,0.5],[1,0.5]];portConstraint=eastwest;top=0;left=0;right=0;bottom=0;" vertex="1" parent="Vgf7w_rn2fsOI5EVaODt-74">
          <mxGeometry y="100" width="180" height="20" as="geometry" />
        </mxCell>
        <mxCell id="Vgf7w_rn2fsOI5EVaODt-85" value="" style="shape=partialRectangle;connectable=0;fillColor=none;top=0;left=0;bottom=0;right=0;editable=1;overflow=hidden;whiteSpace=wrap;html=1;" vertex="1" parent="Vgf7w_rn2fsOI5EVaODt-84">
          <mxGeometry width="30" height="20" as="geometry">
            <mxRectangle width="30" height="20" as="alternateBounds" />
          </mxGeometry>
        </mxCell>
        <mxCell id="Vgf7w_rn2fsOI5EVaODt-86" value="" style="shape=partialRectangle;connectable=0;fillColor=none;top=0;left=0;bottom=0;right=0;align=left;spacingLeft=6;overflow=hidden;whiteSpace=wrap;html=1;" vertex="1" parent="Vgf7w_rn2fsOI5EVaODt-84">
          <mxGeometry x="30" width="150" height="20" as="geometry">
            <mxRectangle width="150" height="20" as="alternateBounds" />
          </mxGeometry>
        </mxCell>
        <mxCell id="Vgf7w_rn2fsOI5EVaODt-88" value="" style="edgeStyle=entityRelationEdgeStyle;fontSize=12;html=1;endArrow=ERoneToMany;rounded=0;" edge="1" parent="1" source="QEFrnaObycWSIP6j9tzF-1" target="Vgf7w_rn2fsOI5EVaODt-74">
          <mxGeometry width="100" height="100" relative="1" as="geometry">
            <mxPoint x="430" y="830" as="sourcePoint" />
            <mxPoint x="530" y="730" as="targetPoint" />
          </mxGeometry>
        </mxCell>
        <mxCell id="Vgf7w_rn2fsOI5EVaODt-89" value="" style="edgeStyle=entityRelationEdgeStyle;fontSize=12;html=1;endArrow=ERoneToMany;rounded=0;" edge="1" parent="1" source="QEFrnaObycWSIP6j9tzF-55" target="Vgf7w_rn2fsOI5EVaODt-74">
          <mxGeometry width="100" height="100" relative="1" as="geometry">
            <mxPoint x="430" y="830" as="sourcePoint" />
            <mxPoint x="530" y="730" as="targetPoint" />
          </mxGeometry>
        </mxCell>
        <mxCell id="Vgf7w_rn2fsOI5EVaODt-90" value="" style="edgeStyle=entityRelationEdgeStyle;fontSize=12;html=1;endArrow=ERmandOne;startArrow=ERmandOne;rounded=0;" edge="1" parent="1" source="QEFrnaObycWSIP6j9tzF-55" target="QEFrnaObycWSIP6j9tzF-55">
          <mxGeometry width="100" height="100" relative="1" as="geometry">
            <mxPoint x="640" y="730" as="sourcePoint" />
            <mxPoint x="740" y="630" as="targetPoint" />
          </mxGeometry>
        </mxCell>
        <mxCell id="Vgf7w_rn2fsOI5EVaODt-94" value="" style="edgeStyle=entityRelationEdgeStyle;fontSize=12;html=1;endArrow=ERoneToMany;rounded=0;" edge="1" parent="1" target="QEFrnaObycWSIP6j9tzF-29">
          <mxGeometry width="100" height="100" relative="1" as="geometry">
            <mxPoint x="770" y="835" as="sourcePoint" />
            <mxPoint x="870" y="735" as="targetPoint" />
          </mxGeometry>
        </mxCell>
        <mxCell id="Vgf7w_rn2fsOI5EVaODt-95" value="" style="edgeStyle=entityRelationEdgeStyle;fontSize=12;html=1;endArrow=ERoneToMany;rounded=0;" edge="1" parent="1" source="QEFrnaObycWSIP6j9tzF-39" target="QEFrnaObycWSIP6j9tzF-68">
          <mxGeometry width="100" height="100" relative="1" as="geometry">
            <mxPoint x="850" y="930" as="sourcePoint" />
            <mxPoint x="820" y="1140" as="targetPoint" />
            <Array as="points">
              <mxPoint x="960" y="1020" />
              <mxPoint x="960" y="1040" />
              <mxPoint x="920" y="1090" />
              <mxPoint x="910" y="1090" />
            </Array>
          </mxGeometry>
        </mxCell>
        <mxCell id="Vgf7w_rn2fsOI5EVaODt-96" value="planta_proceso" style="shape=table;startSize=30;container=1;collapsible=1;childLayout=tableLayout;fixedRows=1;rowLines=0;fontStyle=1;align=center;resizeLast=1;html=1;" vertex="1" parent="1">
          <mxGeometry x="40" y="930" width="180" height="120" as="geometry" />
        </mxCell>
        <mxCell id="Vgf7w_rn2fsOI5EVaODt-97" value="" style="shape=tableRow;horizontal=0;startSize=0;swimlaneHead=0;swimlaneBody=0;fillColor=none;collapsible=0;dropTarget=0;points=[[0,0.5],[1,0.5]];portConstraint=eastwest;top=0;left=0;right=0;bottom=1;" vertex="1" parent="Vgf7w_rn2fsOI5EVaODt-96">
          <mxGeometry y="30" width="180" height="30" as="geometry" />
        </mxCell>
        <mxCell id="Vgf7w_rn2fsOI5EVaODt-98" value="PK" style="shape=partialRectangle;connectable=0;fillColor=none;top=0;left=0;bottom=0;right=0;fontStyle=1;overflow=hidden;whiteSpace=wrap;html=1;" vertex="1" parent="Vgf7w_rn2fsOI5EVaODt-97">
          <mxGeometry width="30" height="30" as="geometry">
            <mxRectangle width="30" height="30" as="alternateBounds" />
          </mxGeometry>
        </mxCell>
        <mxCell id="Vgf7w_rn2fsOI5EVaODt-99" value="ID" style="shape=partialRectangle;connectable=0;fillColor=none;top=0;left=0;bottom=0;right=0;align=left;spacingLeft=6;fontStyle=5;overflow=hidden;whiteSpace=wrap;html=1;" vertex="1" parent="Vgf7w_rn2fsOI5EVaODt-97">
          <mxGeometry x="30" width="150" height="30" as="geometry">
            <mxRectangle width="150" height="30" as="alternateBounds" />
          </mxGeometry>
        </mxCell>
        <mxCell id="Vgf7w_rn2fsOI5EVaODt-100" value="" style="shape=tableRow;horizontal=0;startSize=0;swimlaneHead=0;swimlaneBody=0;fillColor=none;collapsible=0;dropTarget=0;points=[[0,0.5],[1,0.5]];portConstraint=eastwest;top=0;left=0;right=0;bottom=0;" vertex="1" parent="Vgf7w_rn2fsOI5EVaODt-96">
          <mxGeometry y="60" width="180" height="30" as="geometry" />
        </mxCell>
        <mxCell id="Vgf7w_rn2fsOI5EVaODt-101" value="FK" style="shape=partialRectangle;connectable=0;fillColor=none;top=0;left=0;bottom=0;right=0;editable=1;overflow=hidden;whiteSpace=wrap;html=1;" vertex="1" parent="Vgf7w_rn2fsOI5EVaODt-100">
          <mxGeometry width="30" height="30" as="geometry">
            <mxRectangle width="30" height="30" as="alternateBounds" />
          </mxGeometry>
        </mxCell>
        <mxCell id="Vgf7w_rn2fsOI5EVaODt-102" value="planta_idplanta" style="shape=partialRectangle;connectable=0;fillColor=none;top=0;left=0;bottom=0;right=0;align=left;spacingLeft=6;overflow=hidden;whiteSpace=wrap;html=1;" vertex="1" parent="Vgf7w_rn2fsOI5EVaODt-100">
          <mxGeometry x="30" width="150" height="30" as="geometry">
            <mxRectangle width="150" height="30" as="alternateBounds" />
          </mxGeometry>
        </mxCell>
        <mxCell id="Vgf7w_rn2fsOI5EVaODt-103" value="" style="shape=tableRow;horizontal=0;startSize=0;swimlaneHead=0;swimlaneBody=0;fillColor=none;collapsible=0;dropTarget=0;points=[[0,0.5],[1,0.5]];portConstraint=eastwest;top=0;left=0;right=0;bottom=0;" vertex="1" parent="Vgf7w_rn2fsOI5EVaODt-96">
          <mxGeometry y="90" width="180" height="30" as="geometry" />
        </mxCell>
        <mxCell id="Vgf7w_rn2fsOI5EVaODt-104" value="FK" style="shape=partialRectangle;connectable=0;fillColor=none;top=0;left=0;bottom=0;right=0;editable=1;overflow=hidden;whiteSpace=wrap;html=1;" vertex="1" parent="Vgf7w_rn2fsOI5EVaODt-103">
          <mxGeometry width="30" height="30" as="geometry">
            <mxRectangle width="30" height="30" as="alternateBounds" />
          </mxGeometry>
        </mxCell>
        <mxCell id="Vgf7w_rn2fsOI5EVaODt-105" value="proceso_idproceso" style="shape=partialRectangle;connectable=0;fillColor=none;top=0;left=0;bottom=0;right=0;align=left;spacingLeft=6;overflow=hidden;whiteSpace=wrap;html=1;" vertex="1" parent="Vgf7w_rn2fsOI5EVaODt-103">
          <mxGeometry x="30" width="150" height="30" as="geometry">
            <mxRectangle width="150" height="30" as="alternateBounds" />
          </mxGeometry>
        </mxCell>
        <mxCell id="Vgf7w_rn2fsOI5EVaODt-109" value="" style="edgeStyle=entityRelationEdgeStyle;fontSize=12;html=1;endArrow=ERoneToMany;rounded=0;" edge="1" parent="1" source="QEFrnaObycWSIP6j9tzF-42" target="Vgf7w_rn2fsOI5EVaODt-96">
          <mxGeometry width="100" height="100" relative="1" as="geometry">
            <mxPoint x="490" y="850" as="sourcePoint" />
            <mxPoint x="590" y="750" as="targetPoint" />
          </mxGeometry>
        </mxCell>
        <mxCell id="Vgf7w_rn2fsOI5EVaODt-110" value="" style="edgeStyle=entityRelationEdgeStyle;fontSize=12;html=1;endArrow=ERoneToMany;rounded=0;entryX=1;entryY=0.289;entryDx=0;entryDy=0;entryPerimeter=0;" edge="1" parent="1" source="QEFrnaObycWSIP6j9tzF-8" target="Vgf7w_rn2fsOI5EVaODt-97">
          <mxGeometry width="100" height="100" relative="1" as="geometry">
            <mxPoint x="-30" y="890" as="sourcePoint" />
            <mxPoint x="-30" y="1090" as="targetPoint" />
            <Array as="points">
              <mxPoint x="-100" y="990" />
              <mxPoint x="260" y="980" />
            </Array>
          </mxGeometry>
        </mxCell>
        <mxCell id="Vgf7w_rn2fsOI5EVaODt-111" value="Complejidad" style="shape=table;startSize=30;container=1;collapsible=1;childLayout=tableLayout;fixedRows=1;rowLines=0;fontStyle=1;align=center;resizeLast=1;html=1;" vertex="1" parent="1">
          <mxGeometry x="40" y="1090" width="180" height="90" as="geometry" />
        </mxCell>
        <mxCell id="Vgf7w_rn2fsOI5EVaODt-112" value="" style="shape=tableRow;horizontal=0;startSize=0;swimlaneHead=0;swimlaneBody=0;fillColor=none;collapsible=0;dropTarget=0;points=[[0,0.5],[1,0.5]];portConstraint=eastwest;top=0;left=0;right=0;bottom=1;" vertex="1" parent="Vgf7w_rn2fsOI5EVaODt-111">
          <mxGeometry y="30" width="180" height="30" as="geometry" />
        </mxCell>
        <mxCell id="Vgf7w_rn2fsOI5EVaODt-113" value="PK" style="shape=partialRectangle;connectable=0;fillColor=none;top=0;left=0;bottom=0;right=0;fontStyle=1;overflow=hidden;whiteSpace=wrap;html=1;" vertex="1" parent="Vgf7w_rn2fsOI5EVaODt-112">
          <mxGeometry width="30" height="30" as="geometry">
            <mxRectangle width="30" height="30" as="alternateBounds" />
          </mxGeometry>
        </mxCell>
        <mxCell id="Vgf7w_rn2fsOI5EVaODt-114" value="id_complejidad" style="shape=partialRectangle;connectable=0;fillColor=none;top=0;left=0;bottom=0;right=0;align=left;spacingLeft=6;fontStyle=5;overflow=hidden;whiteSpace=wrap;html=1;" vertex="1" parent="Vgf7w_rn2fsOI5EVaODt-112">
          <mxGeometry x="30" width="150" height="30" as="geometry">
            <mxRectangle width="150" height="30" as="alternateBounds" />
          </mxGeometry>
        </mxCell>
        <mxCell id="Vgf7w_rn2fsOI5EVaODt-115" value="" style="shape=tableRow;horizontal=0;startSize=0;swimlaneHead=0;swimlaneBody=0;fillColor=none;collapsible=0;dropTarget=0;points=[[0,0.5],[1,0.5]];portConstraint=eastwest;top=0;left=0;right=0;bottom=0;" vertex="1" parent="Vgf7w_rn2fsOI5EVaODt-111">
          <mxGeometry y="60" width="180" height="30" as="geometry" />
        </mxCell>
        <mxCell id="Vgf7w_rn2fsOI5EVaODt-116" value="" style="shape=partialRectangle;connectable=0;fillColor=none;top=0;left=0;bottom=0;right=0;editable=1;overflow=hidden;whiteSpace=wrap;html=1;" vertex="1" parent="Vgf7w_rn2fsOI5EVaODt-115">
          <mxGeometry width="30" height="30" as="geometry">
            <mxRectangle width="30" height="30" as="alternateBounds" />
          </mxGeometry>
        </mxCell>
        <mxCell id="Vgf7w_rn2fsOI5EVaODt-117" value="grado" style="shape=partialRectangle;connectable=0;fillColor=none;top=0;left=0;bottom=0;right=0;align=left;spacingLeft=6;overflow=hidden;whiteSpace=wrap;html=1;" vertex="1" parent="Vgf7w_rn2fsOI5EVaODt-115">
          <mxGeometry x="30" width="150" height="30" as="geometry">
            <mxRectangle width="150" height="30" as="alternateBounds" />
          </mxGeometry>
        </mxCell>
        <mxCell id="Vgf7w_rn2fsOI5EVaODt-125" value="" style="edgeStyle=entityRelationEdgeStyle;fontSize=12;html=1;endArrow=ERmandOne;startArrow=ERmandOne;rounded=0;" edge="1" parent="1" source="Vgf7w_rn2fsOI5EVaODt-111" target="QEFrnaObycWSIP6j9tzF-49">
          <mxGeometry width="100" height="100" relative="1" as="geometry">
            <mxPoint x="420" y="1040" as="sourcePoint" />
            <mxPoint x="520" y="940" as="targetPoint" />
            <Array as="points">
              <mxPoint x="420" y="1070" />
              <mxPoint x="460" y="1050" />
            </Array>
          </mxGeometry>
        </mxCell>
      </root>
    </mxGraphModel>
  </diagram>
</mxfile>
